<?xml version="1.0" encoding="UTF-8" standalone="no"?>
<svg
   xmlns:svg="http://www.w3.org/2000/svg"
   xmlns="http://www.w3.org/2000/svg"
   version="1.1"
   width="155"
   height="31"
   id="svg2">
  <g
     style="fill:#172026"
     id="g22">
    <path
       d="m 43.3952,22.2946 v -1.231 c -0.958,0.955 -1.862,1.367 -3.501,1.367 -1.615,0 -2.791,-0.412 -3.64,-1.258 -0.766,-0.793 -1.176,-1.942 -1.176,-3.2 0,-2.269 1.559,-4.131 4.869,-4.131 h 3.365 v -0.708 c 0,-1.559 -0.766,-2.245 -2.652,-2.245 -1.37,0 -1.998,0.33 -2.737,1.176 l -2.27,-2.214 c 1.394,-1.532 2.762,-1.969 5.143,-1.969 3.993,0 6.071,1.693 6.071,5.031 v 9.382 z m -0.083,-6.017 h -2.817 c -1.285,0 -1.998,0.602 -1.998,1.612 0,0.985 0.657,1.642 2.052,1.642 0.984,0 1.614,-0.083 2.242,-0.684 0.383,-0.356 0.521,-0.931 0.521,-1.804 z"
       id="path4" />
    <path
       d="m 54.5346,22.4573 c -2.844,0 -6.374,-1.53 -6.374,-7.302 0,-5.772 3.53,-7.274 6.374,-7.274 1.969,0 3.446,0.602 4.704,1.914 l -2.407,2.407 c -0.738,-0.793 -1.368,-1.122 -2.297,-1.122 -0.848,0 -1.505,0.303 -2.024,0.931 -0.548,0.683 -0.793,1.639 -0.793,3.144 0,1.505 0.245,2.49 0.793,3.171 0.519,0.63 1.176,0.931 2.024,0.931 0.929,0 1.559,-0.327 2.297,-1.122 l 2.407,2.38 c -1.258,1.312 -2.735,1.942 -4.704,1.942"
       id="path6" />
    <path
       d="m 65.7405,22.4573 c -2.844,0 -6.374,-1.53 -6.374,-7.302 0,-5.772 3.53,-7.274 6.374,-7.274 1.969,0 3.446,0.602 4.704,1.914 l -2.408,2.407 c -0.737,-0.793 -1.367,-1.122 -2.296,-1.122 -0.849,0 -1.506,0.303 -2.024,0.931 -0.548,0.683 -0.794,1.639 -0.794,3.144 0,1.505 0.246,2.49 0.794,3.171 0.518,0.63 1.175,0.931 2.024,0.931 0.929,0 1.559,-0.327 2.296,-1.122 l 2.408,2.38 c -1.258,1.312 -2.735,1.942 -4.704,1.942"
       id="path8" />
    <path
       d="m 73.9765,16.2779 c 0,1.83 1.122,3.171 3.118,3.171 1.559,0 2.325,-0.437 3.227,-1.341 l 2.163,2.107 c -1.45,1.45 -2.846,2.242 -5.417,2.242 -3.365,0 -6.592,-1.53 -6.592,-7.302 0,-4.649 2.517,-7.274 6.209,-7.274 3.967,0 6.21,2.898 6.21,6.811 v 1.586 z m 5.089,-3.966 c -0.383,-0.849 -1.178,-1.477 -2.381,-1.477 -1.202,0 -1.995,0.628 -2.378,1.477 -0.221,0.519 -0.301,0.902 -0.33,1.529 h 5.417 c -0.027,-0.627 -0.109,-1.01 -0.328,-1.529"
       id="path10" />
    <path
       d="m 89.7039,22.4573 c -2.243,0 -4.267,-0.247 -6.073,-2.051 l 2.325,-2.325 c 1.176,1.176 2.708,1.341 3.801,1.341 1.232,0 2.517,-0.41 2.517,-1.477 0,-0.71 -0.383,-1.205 -1.503,-1.311 l -2.243,-0.221 c -2.572,-0.247 -4.157,-1.367 -4.157,-3.992 0,-2.953 2.596,-4.54 5.495,-4.54 2.217,0 4.076,0.382 5.444,1.667 l -2.187,2.215 c -0.822,-0.737 -2.081,-0.955 -3.31,-0.955 -1.423,0 -2.025,0.655 -2.025,1.368 0,0.518 0.219,1.12 1.477,1.229 l 2.243,0.218 c 2.818,0.274 4.241,1.777 4.241,4.187 0,3.144 -2.682,4.647 -6.045,4.647"
       id="path12" />
    <path
       d="m 102.2564,22.4573 c -2.243,0 -4.267,-0.247 -6.074,-2.051 l 2.325,-2.325 c 1.176,1.176 2.709,1.341 3.803,1.341 1.231,0 2.517,-0.41 2.517,-1.477 0,-0.71 -0.384,-1.205 -1.504,-1.311 l -2.243,-0.221 c -2.573,-0.247 -4.158,-1.367 -4.158,-3.992 0,-2.953 2.597,-4.54 5.497,-4.54 2.216,0 4.075,0.382 5.443,1.667 l -2.187,2.215 c -0.822,-0.737 -2.08,-0.955 -3.31,-0.955 -1.423,0 -2.024,0.655 -2.024,1.368 0,0.518 0.218,1.12 1.476,1.229 l 2.243,0.218 c 2.818,0.274 4.241,1.777 4.241,4.187 0,3.144 -2.682,4.647 -6.045,4.647"
       id="path14" />
    <path
       d="m 119.3752,22.257 v -8.702 c 0,-2.498 -1.35,-3.762 -3.475,-3.762 -2.125,0 -3.504,1.293 -3.504,3.762 v 8.702 h -2.067 V 8.128 h 2.067 v 1.55 c 1.006,-1.148 2.384,-1.723 3.964,-1.723 1.522,0 2.756,0.46 3.618,1.321 1.005,0.977 1.465,2.298 1.465,3.935 v 9.046 z"
       id="path16" />
    <path
       d="m 132.8431,20.8212 c -0.976,0.976 -2.326,1.608 -4.049,1.608 -1.723,0 -3.073,-0.632 -4.05,-1.608 -1.435,-1.465 -1.723,-3.446 -1.723,-5.629 0,-2.182 0.288,-4.164 1.723,-5.629 0.977,-0.976 2.327,-1.608 4.05,-1.608 1.723,0 3.073,0.632 4.049,1.608 1.436,1.465 1.723,3.447 1.723,5.629 0,2.183 -0.287,4.164 -1.723,5.629 m -1.465,-9.994 c -0.66,-0.661 -1.579,-1.034 -2.584,-1.034 -1.005,0 -1.896,0.373 -2.556,1.034 -1.034,1.034 -1.149,2.786 -1.149,4.365 0,1.58 0.115,3.332 1.149,4.365 0.66,0.661 1.551,1.034 2.556,1.034 1.005,0 1.924,-0.373 2.584,-1.034 1.034,-1.033 1.12,-2.785 1.12,-4.365 0,-1.579 -0.086,-3.331 -1.12,-4.365"
       id="path18" />
    <path
       d="m 150.1865,22.257 h -1.924 l -3.705,-10.97 -3.676,10.97 h -1.924 l -4.48,-14.129 h 2.24 l 3.245,11.343 3.705,-11.343 h 1.781 l 3.733,11.343 3.216,-11.343 h 2.24 z"
       id="path20" />
  </g>
  <g
     style="fill:#78c144"
     id="g40">
    <path
       d="m 2.5069,19.4646 c -0.705,-0.111 -1.403,-0.243 -2.095,-0.394 1.217,5.147 5.044,9.281 10.009,10.929 -0.001,-0.053 -0.008,-0.105 -0.008,-0.158 0,-1.213 0.399,-2.329 1.065,-3.237 -0.819,-0.938 -1.586,-1.923 -2.298,-2.948 -0.584,0.254 -1.228,0.397 -1.905,0.397 -2.575,0 -4.669,-2.038 -4.768,-4.589"
       id="path24" />
    <path
       d="m 21.9158,17.9415 c 2.154,1.689 4.442,3.215 6.843,4.562 1.071,-2.083 1.679,-4.443 1.679,-6.946 0,-1.007 -0.1,-1.991 -0.287,-2.944 -1.008,0.755 -2.057,1.458 -3.141,2.107 -0.453,1.698 -1.035,3.343 -1.736,4.925 -0.179,-0.118 -0.357,-0.239 -0.536,-0.359 0.582,-1.326 1.078,-2.698 1.484,-4.107 -4.274,2.42 -9.078,4.006 -14.192,4.536 -0.141,1.547 -1.021,2.878 -2.284,3.644 0.667,0.954 1.381,1.873 2.141,2.75 1.001,-1.074 2.424,-1.75 4.008,-1.75 0.888,0 1.723,0.216 2.465,0.591 0.688,-2.052 1.256,-4.157 1.692,-6.311 0.232,-0.079 0.464,-0.16 0.694,-0.245 -0.459,2.351 -1.071,4.647 -1.825,6.878 0.542,0.36 1.013,0.816 1.397,1.34 1.375,-1.73 2.583,-3.598 3.596,-5.583 0.177,0.119 0.357,0.234 0.535,0.35 -1.058,2.064 -2.323,4.004 -3.767,5.795 0.386,0.691 0.622,1.475 0.676,2.308 3,-1.324 5.49,-3.588 7.099,-6.421 -2.541,-1.425 -4.956,-3.049 -7.223,-4.852 0.229,-0.087 0.456,-0.176 0.682,-0.268"
       id="path26" />
    <path
       d="m 28.074,8.2211 c -0.124,1.921 -0.409,3.798 -0.842,5.619 0.953,-0.594 1.876,-1.232 2.767,-1.91 -0.334,-1.366 -0.852,-2.659 -1.527,-3.852 -0.125,0.063 -0.257,0.115 -0.398,0.143"
       id="path28" />
    <path
       d="m 3.0836,10.3148 c -0.896,0.469 -1.769,0.977 -2.622,1.514 -0.3,1.193 -0.462,2.442 -0.462,3.729 0,0.968 0.095,1.913 0.267,2.831 0.743,0.168 1.495,0.313 2.254,0.434 0.149,-1.58 1.068,-2.932 2.377,-3.686 -0.947,-2.825 -1.53,-5.816 -1.692,-8.917 -1.084,1.393 -1.932,2.976 -2.482,4.694 0.734,-0.443 1.483,-0.863 2.248,-1.258 0.035,0.22 0.072,0.44 0.112,0.659"
       id="path30" />
    <path
       d="m 26.1696,6.6609 c 0,-0.075 0.012,-0.147 0.022,-0.22 -0.983,-0.147 -1.979,-0.255 -2.985,-0.324 -0.145,0.861 -0.701,1.58 -1.46,1.949 -0.002,2.766 -0.212,5.484 -0.617,8.139 -0.228,0.092 -0.457,0.18 -0.687,0.267 -0.073,0.028 -0.145,0.056 -0.218,0.083 -0.229,0.085 -0.46,0.167 -0.691,0.247 -2.159,-1.865 -4.169,-3.898 -6.009,-6.078 -0.521,0.323 -1.132,0.513 -1.79,0.513 -1.805,0 -3.277,-1.406 -3.39,-3.182 -1.187,0.406 -2.348,0.867 -3.478,1.385 -0.036,-0.217 -0.07,-0.435 -0.101,-0.653 1.171,-0.53 2.373,-1.001 3.603,-1.413 0.112,-0.829 0.522,-1.561 1.119,-2.088 -0.627,-0.965 -1.224,-1.951 -1.79,-2.957 -1.465,0.835 -2.777,1.904 -3.886,3.159 0.103,3.262 0.679,6.406 1.662,9.366 0.556,-0.227 1.163,-0.354 1.801,-0.354 2.57,0 4.66,2.031 4.767,4.575 5.217,-0.552 10.104,-2.223 14.418,-4.766 0.509,-1.966 0.84,-4.001 0.978,-6.089 -0.724,-0.15 -1.268,-0.791 -1.268,-1.559"
       id="path32" />
    <path
       d="m 23.2365,5.4825 c 1.07,0.073 2.129,0.188 3.173,0.347 0.07,-0.113 0.15,-0.217 0.244,-0.309 -1.45,-1.651 -3.251,-2.984 -5.287,-3.885 0.061,0.515 0.115,1.033 0.162,1.552 0.946,0.36 1.633,1.242 1.708,2.295"
       id="path34" />
    <path
       d="m 20.5841,8.3363 c -1.32,0 -2.412,-0.961 -2.623,-2.221 -1.051,0.072 -2.091,0.187 -3.117,0.344 0.186,0.421 0.292,0.886 0.292,1.376 0,0.991 -0.426,1.88 -1.102,2.501 1.892,2.237 3.961,4.319 6.191,6.219 0.072,-0.027 0.145,-0.055 0.217,-0.083 0.426,-2.669 0.654,-5.404 0.667,-8.188 -0.17,0.034 -0.345,0.052 -0.525,0.052"
       id="path36" />
    <path
       d="m 14.5057,5.8673 c 1.127,-0.179 2.27,-0.308 3.426,-0.387 0.1,-1.379 1.248,-2.468 2.652,-2.468 0.098,0 0.195,0.006 0.29,0.016 -0.052,-0.56 -0.114,-1.117 -0.184,-1.672 -1.698,-0.655 -3.542,-1.018 -5.471,-1.018 -2.509,0 -4.874,0.611 -6.961,1.687 0.553,0.981 1.132,1.945 1.744,2.887 0.508,-0.302 1.099,-0.478 1.733,-0.478 1.144,0 2.154,0.567 2.771,1.433"
       id="path38" />
  </g>
</svg>
