<?xml version="1.0" encoding="utf-8"?>
<!-- Generator: Adobe Illustrator 19.2.1, SVG Export Plug-In . SVG Version: 6.00 Build 0)  -->
<svg version="1.1" id="layer" xmlns="http://www.w3.org/2000/svg" xmlns:xlink="http://www.w3.org/1999/xlink" x="0px" y="0px"
	 viewBox="0 0 652 652" style="enable-background:new 0 0 652 652;" xml:space="preserve">
<style type="text/css">
	.st0{fill:#D10019;}
</style>
<g>
	<path d="M191.7,355.7l32.5-36.9h-22.1l-39.9,45.8v-59.6c-7.2,3.1-13.8,6.6-20,10.4v92.3h20v-21.3l17.1-18.6l26.4,39.9h21.5
		L191.7,355.7z M317.4,395.1c-7.6,0-9.5-1.9-9.5-6.8v-35.4c0-21.7-12-36.1-38.4-36.1c-17.7,0-29.9,8.6-37.6,22.8l14.6,7.6
		c5.7-9.5,12.4-15,24-15c11.8,0,18.1,6.7,18.1,18.1v5.5c0.1,5.2,0.1,9.6,0,13.3c0,0,0,0,0,0v8c0,10.1-14.1,17.3-26.1,17.3
		c-9.7,0-15.8-5.3-15.8-11.6v-0.4c0-7.9,6.4-13,18.5-14.3c7-1.9,13.7-4.5,14.7-11.9c-29.1-2.3-53,6-53,26.8v0.8
		c0,16,12.9,25.7,31.9,25.7c13.5,0,26.2-5.5,34.4-15.4c-0.4,11.6,7.8,15.4,16.9,15.4h7.2V395.1z M400.7,356.7
		c0-23.2-15.4-39.9-42-39.9c-26.6,0-42.6,17.1-42.6,39.5v14.3c0,23.6,17.9,38.8,43.4,38.8c19.6,0,33.1-8.6,40.5-26.4l-16.4-5.7
		c-3.4,9.7-11.4,17.1-23,17.1c-14.8,0-24.5-8.9-24.5-20.7v-5.5l-0.1,0c0-6.4,0.5-11.6,1.4-16l-1.3,0.4l1.4-0.6
		c3.6-17.5,13.6-19.8,23.4-19.8c10,0,18.5,2,19.6,9.8l0.1,0.5c3.4,18.9-35,0.6-35.4,22.7h55.7V356.7z M505.7,407.8l32.1-89h-19.6
		l-16.5,51.5l-4.4,16.4l-4.4-16.4l-15.8-51.5h-18.6L442,370.4l-4.4,16.4l-4.4-16.4l-15.6-51.5h-20.7l32.1,89H446l16.2-50.2l4.9-15
		l4.9,15l16.7,50.2H505.7z M620.1,409.3v-14.3c-7.6,0-9.5-1.9-9.5-6.8v-35.4c0-21.7-12-36.1-38.4-36.1c-17.7,0-29.9,8.6-37.6,22.8
		l14.6,7.6c5.7-9.5,12.4-15,24-15c11.8,0,18.1,6.7,18.1,18.1v4.2c0.2,6,0.2,10.9,0,15v7.6c0,10.1-14.1,17.3-26.1,17.3
		c-9.7,0-15.8-5.3-15.8-11.6v-0.4c0-7.9,6.4-13,18.6-14.3c7-1.9,13.7-4.5,14.7-11.9c-29.1-2.3-53,6-53,26.8v0.8
		c0,16,12.9,25.7,31.9,25.7c13.5,0,26.2-5.5,34.4-15.4c-0.4,11.6,7.8,15.4,16.9,15.4H620.1z"/>
	<path class="st0" d="M20.1,251.3c0,0,47.3,3.6,71,52.2c0,0,17.8-20.6,42.8-21.3c0,0-56.9,32.3-63.4,102.8
		c0,0,35.5-91.5,143.6-101.2c0,0-23.7-14.4-37.1-6C177.1,277.9,126.4,220.3,20.1,251.3"/>
</g>
</svg>
