<?xml version="1.0" encoding="utf-8"?>
<!-- Generator: Adobe Illustrator 19.2.1, SVG Export Plug-In . SVG Version: 6.00 Build 0)  -->
<svg version="1.1" id="layer" xmlns="http://www.w3.org/2000/svg" xmlns:xlink="http://www.w3.org/1999/xlink" x="0px" y="0px"
	 viewBox="0 0 652 652" style="enable-background:new 0 0 652 652;" xml:space="preserve">
<style type="text/css">
	.st0{fill-rule:evenodd;clip-rule:evenodd;fill:#ED1D24;}
	.st1{fill:#ED1D24;}
</style>
<g>
	<path class="st0" d="M424.2,334.9c2.6,1.8,4.4,2.9,6,4.2c1.1,0.9,2.6,2.2,2.6,3.4c0,1.2-1.2,3.2-2.3,3.6c-2.1,0.8-4.7,1.2-6.9,1
		c-24.6-2.6-47.1-10.6-68.1-23.9c-7.8-5-16.7-8.1-25.2-11.9c-3.4-1.5-5.8-0.4-7.6,3.2c-8.4,16.2-19.6,30.4-33.3,42.4
		c-3.9,3.4-8.5,6.1-13.1,8.4c-4.8,2.4-7.6,0.2-6.2-4.9c1.7-6.1,4-12.1,7.2-17.5c4-6.8,9.3-13,13.9-19.5c0.6-0.8,0.4-2.2,0.5-2.8
		c-6.9,2.8-13.8,5.2-20.4,8.2c-11.1,5.1-22,10.6-33,15.9c-0.6,0.3-1.1,0.8-1.7,0.8c-2.3,0.2-4.5,0.2-6.8,0.2
		c0.7-2.2,0.9-4.8,2.1-6.6c4.1-6.4,8.5-12.6,12.8-18.8c-0.6-0.4-1.1-0.8-1.7-1.3c-1.3,1.8-2.7,3.6-4,5.3c-1.1,1.5-2.1,3.2-3.4,4.5
		c-6.8,7.1-11.2,16.9-21.2,20.7c-6.3,2.4-12.9,4.5-19.5,5.3c-6.7,0.8-8.1-2.4-4.8-8.4c3.5-6.5,6.8-13.2,10.1-19.8
		c0.9-1.8,1.4-3.8,2.4-6.9c-2,1.2-3.3,1.5-3.6,2.2c-2.2,6.3-7.1,9.1-13.1,10.7c-10.5,2.8-21.1,5.4-31.3,8.8
		c-24.6,8.3-49.7,14.3-75,19.3c-12.7,2.5-25.6,4.2-38.5,6c-1.6,0.2-3.4-1.1-5.2-1.7c1.2-1.8,1.9-4.6,3.6-5.4
		c21-9.4,42.1-18.7,63.3-27.7c11.8-5,23.7-9.8,35.8-14c9.2-3.2,19-4.8,28.3-7.8c12.4-4,24.7-8.5,36.9-13
		c10.2-3.7,20.1-8.3,30.5-11.5c10.3-3.2,18.8-9.3,27.6-15.2c9.2-6.2,18.4-12.5,28.2-17.7c7.1-3.8,14.6-5.4,23-1.3
		c8,3.9,17.2,5.3,25.6,8.6c11.9,4.6,23.5,9.8,35.2,14.9c11,4.8,21.9,9.7,32.7,14.8c10.5,5,20.7,10.5,31.1,15.5
		c5.3,2.6,10.8,4.9,16.3,6.9c16.6,5.9,33.3,11.6,49.9,17.4c11.3,4,22.5,8,33.7,12.2c15.3,5.7,30.6,11.5,45.8,17.2
		c11.3,4.3,22.7,8.4,34,12.8c1.2,0.5,2,1.9,3,2.9c-1.4,0.9-3,2.8-4.3,2.6c-3.9-0.4-7.7-1.9-11.6-2.4c-12.6-1.6-25.3-2.4-37.7-4.7
		c-20.4-3.8-40.7-8.5-61-13c-20-4.5-39.1-11.6-58.1-19.3c-5.9-2.4-12.5-3.1-18.9-4.4C427.9,333.5,426.6,334.3,424.2,334.9
		 M382.3,318.8c-4.8-4-9.6-8-14.5-11.9c-1.2-1.5-5.7,1.4-4.7-4c-0.8,1.2-1.5,3.2-0.9,3.7C368.2,311.7,373.2,318.3,382.3,318.8
		 M265.5,282c-8.3,4.5-16.4,8.8-25.2,13.5C248.2,296.5,265.3,286.9,265.5,282"/>
	<path class="st0" d="M497.3,322.9c-4.2-1.3-7.9-2.2-11.4-3.6c-24-9.5-48-19-71.9-28.6c-3.2-1.3-6.3-3.2-8.9-5.4
		c-1.4-1.2-1.6-3.7-2.4-5.6c2-0.3,4.4-1.4,6.1-0.7c12,5.1,23.9,10.5,35.9,15.8c12.4,5.5,24.9,11.1,37.4,16.5
		c5.3,2.3,10.7,4.4,15.9,6.8c0.9,0.4,1.5,1.7,2.2,2.5C499.2,321.4,498.2,322.2,497.3,322.9"/>
	<path class="st0" d="M125.6,358.8c12-5.3,23.8-10.4,35.5-15.6c5.2-2.3,10.4-4.5,15.5-6.8c0.1-0.1,0.3-0.1,0.5-0.1
		c3.1,0.7,7.8,0.4,9,2.3c2.1,3.5-1.3,6.8-4.5,8.2c-9.5,3.9-19.1,7.6-28.9,10.8c-7.1,2.3-14.4,3.7-21.7,5.4
		C125.9,364.3,125,363.5,125.6,358.8"/>
	<path class="st0" d="M329.7,331c1-4.6,2.9-5.7,7.5-3.8c8.4,3.5,16.7,7.1,25.2,10.6c4.5,1.9,9.1,3.5,13.7,5.2
		c4.7,1.8,9.4,3.5,14,5.4c0.8,0.3,1.8,1.5,1.8,2.2c-0.1,0.9-1.1,2.1-1.9,2.3c-1.7,0.3-3.5,0.4-5.1,0c-14.5-3.8-29.1-7.5-43.5-11.7
		c-3.5-1-6.7-3.6-9.7-5.9C330.4,334.5,330.3,332.5,329.7,331"/>
	<path class="st0" d="M438.2,340.1c3.4,0.5,7.1,0.5,10.4,1.7c15.3,5.7,30.4,11.8,45.6,17.8c1.1,0.5,1.8,2,2.7,3.1
		c-1.3,0.9-2.7,2.6-4,2.6c-2.8,0-5.6-0.8-8.3-1.5c-11.6-3-23.3-6.1-34.9-9.2c-1.4-0.4-2.6-1.1-3.9-1.8
		C441.3,350.3,436.4,348.1,438.2,340.1"/>
	<path class="st0" d="M260.2,265.9c-1.6,1.7-2.9,4.1-4.9,5.1c-6.8,3.2-13.9,5.9-20.9,8.7c-5.3,2.1-10.6,4.3-16,6
		c-1.4,0.5-4.5-0.2-4.7-0.9c-0.4-1.9-0.6-4.4,2.8-4.9c1.4-0.2,2.4-2.2,3.8-2.9c9.3-4.5,18.6-9.1,28.1-12.9c3.1-1.3,7.2-0.2,10.9-0.2
		C259.6,264.6,259.9,265.2,260.2,265.9"/>
	<path class="st0" d="M260.6,349.9c-2-1.2-4.1-1.9-4.2-2.8c-0.3-1.5,0.3-3.9,1.3-4.7c6.2-4.2,12.5-8.1,19-11.8
		c1.3-0.8,3.4-0.1,5.1-0.2c-0.7,1.5-1.2,3.2-2.2,4.5c-2.4,3.1-4.6,6.4-7.6,8.7C268.6,346.3,264.5,347.8,260.6,349.9"/>
	<path class="st0" d="M546.3,337.3c5.9,1.8,11.2,3.3,16.4,5.2c8.4,3.1,16.7,6.4,25,9.7c0.9,0.4,1.6,1.3,2.4,1.9
		c-0.9,0.7-1.7,1.6-2.8,2c-0.8,0.3-1.9,0.2-2.8-0.1c-7-2.5-14-5.1-21-7.6c-2.7-1-5.2-2.2-7.9-3.1
		C551.7,344.2,547.9,343.1,546.3,337.3"/>
	<path class="st0" d="M177,301.1c1.4-1.7,2.6-3.8,4.4-4.9c4.1-2.6,8.4-5,12.9-6.8c1.8-0.7,4.3,0.5,6.5,0.8c-1.1,1.7-1.8,4-3.3,4.9
		c-4.3,2.5-9,4.6-13.6,6.5c-1.7,0.7-3.7,0.8-5.6,1.1C177.8,302.2,177.4,301.7,177,301.1"/>
	<path class="st0" d="M404.1,352.1c3.9,0.5,6.5,0.8,9.1,1.3c0.8,0.2,2,1,2,1.5c-0.1,0.9-0.8,2.5-1.4,2.6c-2.6,0.3-5.3,0.6-7.8,0
		C405.2,357.3,404.9,354.5,404.1,352.1"/>
	<path class="st0" d="M232.1,358.1v-6.9c2.7,0.6,5.1,1,7.5,1.7c0.2,0.1,0.3,2.6-0.2,2.8C237.3,356.7,235,357.2,232.1,358.1"/>
	<path class="st0" d="M531.5,332.1c3.3,0.9,6.5,1.6,9.7,2.7c0.7,0.2,0.9,1.7,1.3,2.6c-1,0.5-2.4,1.6-3,1.2c-3-1.5-5.8-3.5-8.7-5.2
		C531.1,333,531.3,332.6,531.5,332.1"/>
	<path class="st1" d="M145.7,266.9l0,5.8l5.9-2.2l-3.6-4.2c-1.1-1.3-1.9-2.3-2.6-3.2C145.6,264.4,145.7,265.6,145.7,266.9"/>
	<path class="st1" d="M134.6,272.2c0.1-0.6,0.1-1.2-0.1-1.7c-0.3-0.8-0.9-1.4-1.6-1.7c-0.8-0.3-1.8-0.2-3.1,0.2l-5.5,2l2.1,5.8
		l4.9-1.8c1.1-0.4,1.8-0.8,2.4-1.2C134.2,273.3,134.5,272.8,134.6,272.2"/>
	<path class="st1" d="M191.3,250c-0.9-0.9-1.9-1.4-3-1.7c-1.1-0.3-2.3-0.2-3.4,0.3c-1.6,0.6-2.8,1.7-3.6,3.2
		c-0.8,1.6-0.7,3.6,0.3,6.3c0.8,2.1,1.9,3.5,3.5,4.3c1.6,0.8,3.2,0.9,4.9,0.2c1.7-0.6,2.9-1.8,3.6-3.4c0.7-1.6,0.6-3.6-0.2-5.8
		C192.8,252,192.1,250.9,191.3,250"/>
	<path class="st1" d="M171.9,255.1c-0.6-0.4-1.2-0.6-1.8-0.5c-0.4,0-1.2,0.2-2.2,0.6l-4.5,1.6l2.3,6.2l4.5-1.7
		c1.5-0.6,2.4-1.2,2.9-2c0.4-0.8,0.4-1.7,0.1-2.7C172.9,256,172.5,255.5,171.9,255.1"/>
	<path class="st1" d="M248.1,230.6c0.1-0.6,0.1-1.2-0.1-1.7c-0.3-0.8-0.9-1.4-1.6-1.7c-0.8-0.3-1.8-0.2-3.1,0.2l-5.5,2l2.1,5.8
		l4.9-1.8c1.1-0.4,1.8-0.8,2.4-1.2C247.6,231.7,247.9,231.2,248.1,230.6"/>
	<path class="st1" d="M300.1,214.8c-6.2,1-12.2,2.8-18.3,4c-3.6,0.7-7.2,0.9-12.2,1.4c1.7-1.9,2.2-2.9,2.9-3.2
		c3.5-1.4,7.2-2.4,10.5-4.2c1.4-0.8,3-3.5,2.6-4.8c-0.4-1.3-3.2-3.1-4.7-2.9c-9.3,1.3-18.8,2.5-27.9,4.9c-7.8,2.1-15.1,6-22.7,8.8
		c-16.7,6.2-33.5,12.1-50.2,18.2c-14.3,5.3-28.6,10.8-42.8,16.3c-14.4,5.5-28.7,11.2-43.1,16.8c-12.6,4.9-25,10.3-37.8,14.7
		c-8.7,3-16,7.7-23,13.3c-1.3,1-1.9,3.5-1.7,5.2c0.1,0.8,2.8,2.1,4.2,1.9c3.3-0.3,6.5-1.3,9.7-2.1c1.6-0.4,3.1-1,4.7-1.5
		c0.2,0.4,0.3,0.8,0.5,1.2c-2.4,1.7-4.8,3.4-7.2,5c-6.1,4.1-12.3,8-18.2,12.3c-1.4,1-1.6,3.7-2.3,5.6c1.7,0.4,3.5,1.3,5.2,1
		c3.8-0.5,7.6-1.1,11.1-2.5c7.6-3,14.9-6.6,22.4-9.9c1.1-0.5,2.5-0.5,3.8-0.7c0,0.5,0.1,1,0.1,1.5c-5.1,3.6-10.2,7.3-15.5,10.6
		c-2.3,1.4-4.5,2.8-3.2,5.2c0.7,1.3,4.2,1.9,6,1.4c6.7-2,13.3-4.4,19.8-6.9c36.3-14,72.5-28,108.8-42c32.6-12.6,65.2-25.1,97.7-37.6
		c4.3-1.7,8.7-3,12.9-4.9c1.3-0.6,1.8-2.6,2.7-4c-1.4-0.7-2.8-1.6-4.4-1.9c-1.2-0.3-2.5,0.4-3.7,0.4c-4.1,0.2-8.3,0.4-12.4,0.6
		c0.7-1.6,1.6-2.7,2.4-2.8c10.5-0.5,18.5-6.7,26.9-11.9c1.5-0.9,2-3.5,2.9-5.4C304.4,215.8,302.1,214.5,300.1,214.8 M80.3,304.7
		L74,287.3l12.6-4.6l0.8,2.1L77,288.5l2,5.3l9.6-3.5l0.8,2l-9.6,3.5l2.2,5.9l10.7-3.9l0.8,2.1L80.3,304.7z M107.8,294.6l-6.7-4.6
		c-0.4-0.3-0.8-0.6-1.2-0.9c-0.2,0.8-0.3,1.3-0.4,1.6l-2.1,7.7l-2.8,1l3.4-11.5l-9-6.2l2.7-1l4.8,3.3c1,0.7,1.7,1.2,2.2,1.6
		c0.2-0.8,0.4-1.6,0.6-2.5l1.8-5.9l2.5-0.9l-3.1,10.4l10,6.8L107.8,294.6z M119.4,290.4l-2.3,0.8l-5.6-15.3l-5.7,2.1l-0.8-2.1
		l13.8-5.1l0.8,2.1l-5.8,2.1L119.4,290.4z M140,282.8l-3.6-2.8c-1.1-0.8-1.9-1.4-2.5-1.8c-0.6-0.4-1.2-0.6-1.6-0.7
		c-0.4-0.1-0.8-0.1-1.2-0.1c-0.3,0-0.7,0.2-1.3,0.4l-2.7,1l2.8,7.7l-2.3,0.8l-6.4-17.4l7.7-2.8c1.6-0.6,2.8-0.8,3.7-0.8
		c0.9,0,1.8,0.3,2.5,1c0.8,0.6,1.3,1.4,1.7,2.4c0.5,1.2,0.4,2.4-0.1,3.6c-0.5,1.1-1.5,2.1-3.1,3c0.7,0.1,1.3,0.2,1.7,0.4
		c0.9,0.4,1.8,0.9,2.8,1.6l4.8,3.6L140,282.8z M156.9,276.7l-4-4.5l-7.3,2.7l0,6l-2.4,0.9l0.3-19.8l2.5-0.9l13.5,14.8L156.9,276.7z
		 M175.5,260.1c-0.6,1.4-2.1,2.5-4.5,3.4l-4.5,1.6l2.6,7.1l-2.3,0.9l-6.4-17.4l6.6-2.4c1.2-0.4,2.1-0.7,2.7-0.8
		c0.9-0.2,1.7-0.2,2.5,0c0.7,0.2,1.4,0.6,2,1.2c0.6,0.6,1.1,1.3,1.4,2.2C176,257.3,176,258.7,175.5,260.1 M196.4,257.7
		c-0.2,1.7-0.8,3.1-1.9,4.3c-1,1.2-2.3,2.1-3.8,2.6c-1.6,0.6-3.2,0.7-4.8,0.4c-1.6-0.3-3-1-4.1-2.2c-1.2-1.1-2-2.5-2.6-4
		c-1.1-2.9-1.1-5.4-0.2-7.6c1-2.2,2.7-3.8,5.1-4.7c1.6-0.6,3.2-0.7,4.8-0.4c1.6,0.3,2.9,1,4.1,2.1c1.2,1.1,2.1,2.6,2.7,4.3
		C196.4,254.3,196.6,256,196.4,257.7 M215.7,255.1l-8.5-11.9c-0.7-1-1.2-1.6-1.3-1.8c0.1,0.9,0.2,1.6,0.2,2.2l1.2,14.6l-2.3,0.9
		l-11-15.7l2.4-0.9l6.8,10.4c0.7,1.1,1.4,2.2,2,3.3c-0.2-2-0.4-3.2-0.4-3.5l-1-13l2.8-1l5.7,7.9c1.4,2,2.6,3.8,3.6,5.7
		c-0.2-1.2-0.4-2.6-0.5-4.1L214,236l2.3-0.9l1.6,19.1L215.7,255.1z M224.9,251.7l-6.4-17.4l12.6-4.6l0.8,2.1l-10.3,3.8l2,5.3
		l9.6-3.5l0.8,2l-9.6,3.5l2.2,5.9l10.7-3.9l0.8,2.1L224.9,251.7z M253.5,241.2l-3.6-2.8c-1.1-0.8-1.9-1.4-2.5-1.8
		c-0.6-0.4-1.2-0.6-1.6-0.7c-0.4-0.1-0.8-0.1-1.2-0.1c-0.3,0-0.7,0.2-1.3,0.4l-2.7,1l2.8,7.7l-2.3,0.9l-6.4-17.4l7.7-2.8
		c1.6-0.6,2.8-0.8,3.7-0.8c0.9,0,1.8,0.3,2.5,1c0.8,0.6,1.3,1.4,1.7,2.4c0.5,1.2,0.4,2.4-0.1,3.6c-0.5,1.1-1.5,2.1-3.1,3
		c0.7,0.1,1.3,0.2,1.7,0.4c0.9,0.4,1.8,0.9,2.8,1.6l4.8,3.6L253.5,241.2z"/>
	<path class="st1" d="M127.9,276.4c0,0,0-0.1,0-0.2c0,0-0.1,0-0.1,0C127.8,276.2,127.9,276.4,127.9,276.4"/>
	<path class="st1" d="M131,269.3c-4,0.6-3.5,3.9-3.1,6.9c1.7-0.3,3.5-0.2,4.9-0.9c1.3-0.6,2.1-2.2,3.2-3.4
		C134.3,271,132.5,269.1,131,269.3"/>
	<path class="st1" d="M35.7,405l13.1,13.4c2.1,2.2,4,3.7,5.5,4.5c1.5,0.8,3,1.3,4.6,1.4v1H41.9v-1c1,0,1.8-0.2,2.2-0.5
		c0.5-0.4,0.7-0.7,0.7-1.2c0-0.4-0.1-0.8-0.3-1.2c-0.2-0.3-0.7-1-1.6-1.9L30.6,407v11.8c0,1.9,0.1,3.1,0.3,3.7
		c0.2,0.5,0.5,0.8,1.1,1.2c0.8,0.4,1.6,0.7,2.4,0.7h1.2v1H20.5v-1h1.3c1.5,0,2.5-0.4,3.2-1.3c0.4-0.6,0.6-2,0.6-4.2v-23.6
		c0-1.9-0.1-3.1-0.3-3.7c-0.2-0.4-0.5-0.8-1.1-1.1c-0.8-0.4-1.6-0.7-2.4-0.7h-1.3v-1h15.1v1h-1.2c-0.8,0-1.6,0.2-2.4,0.6
		c-0.5,0.3-0.9,0.7-1.1,1.3c-0.2,0.6-0.3,1.8-0.3,3.6v11.2c0.3-0.3,1.5-1.5,3.6-3.4c5.2-4.9,8.3-8.2,9.4-9.8
		c0.5-0.7,0.7-1.3,0.7-1.9c0-0.4-0.2-0.8-0.6-1.1c-0.4-0.3-1-0.5-1.9-0.5h-0.8v-1h13.1v1c-0.8,0-1.5,0.1-2.1,0.3
		c-0.6,0.2-1.4,0.6-2.3,1.1c-0.9,0.6-2,1.5-3.4,2.7c-0.4,0.4-2.2,2.2-5.3,5.5L35.7,405z"/>
	<path class="st1" d="M74.9,424.3v1H59.7v-1H61c1.5,0,2.5-0.4,3.2-1.3c0.4-0.6,0.6-2,0.6-4.2v-23.6c0-1.9-0.1-3.1-0.3-3.7
		c-0.2-0.5-0.5-0.8-1.1-1.2c-0.8-0.4-1.6-0.7-2.4-0.7h-1.3v-1h15.2v1h-1.3c-1.5,0-2.5,0.4-3.2,1.3c-0.4,0.6-0.7,2-0.7,4.2v23.6
		c0,1.9,0.1,3.1,0.3,3.7c0.2,0.5,0.5,0.8,1.1,1.2c0.8,0.4,1.5,0.7,2.4,0.7H74.9z"/>
	<path class="st1" d="M107,415.2l0.9,0.2l-3,9.9H77.3v-1h1.3c1.5,0,2.6-0.5,3.2-1.5c0.4-0.6,0.6-1.9,0.6-4v-23.6
		c0-2.3-0.2-3.7-0.7-4.3c-0.7-0.8-1.7-1.2-3-1.2h-1.3v-1h16.1v1c-1.9,0-3.2,0.2-4,0.5c-0.8,0.4-1.3,0.9-1.6,1.4
		c-0.3,0.6-0.4,2-0.4,4.1v23c0,1.5,0.1,2.5,0.4,3.1c0.2,0.4,0.5,0.7,1,0.8c0.4,0.2,1.8,0.3,4.1,0.3h2.6c2.7,0,4.6-0.2,5.7-0.6
		c1.1-0.4,2.1-1.1,3-2.2C105.2,419.1,106.1,417.4,107,415.2"/>
	<path class="st1" d="M125.6,424.3v1h-15.2v-1h1.3c1.5,0,2.5-0.4,3.2-1.3c0.4-0.6,0.6-2,0.6-4.2v-23.6c0-1.9-0.1-3.1-0.3-3.7
		c-0.2-0.5-0.5-0.8-1.1-1.2c-0.8-0.4-1.6-0.7-2.4-0.7h-1.3v-1h15.2v1h-1.3c-1.5,0-2.5,0.4-3.2,1.3c-0.4,0.6-0.7,2-0.7,4.2v23.6
		c0,1.9,0.1,3.1,0.3,3.7c0.2,0.5,0.5,0.8,1.1,1.2c0.8,0.4,1.5,0.7,2.4,0.7H125.6z"/>
	<path class="st1" d="M148.8,425.3l-13.7-30.8v24.5c0,2.3,0.2,3.7,0.7,4.2c0.7,0.8,1.7,1.1,3.1,1.1h1.3v1h-12.4v-1h1.3
		c1.5,0,2.6-0.5,3.2-1.4c0.4-0.6,0.6-1.9,0.6-3.9V395c0-1.6-0.2-2.8-0.5-3.5c-0.2-0.5-0.7-1-1.4-1.3c-0.7-0.4-1.7-0.5-3.2-0.5v-1
		h10.1l12.9,28.6l12.7-28.6h10.1v1h-1.2c-1.5,0-2.6,0.5-3.2,1.4c-0.4,0.6-0.6,1.9-0.6,3.9v23.9c0,2.3,0.2,3.7,0.7,4.2
		c0.6,0.8,1.7,1.1,3.1,1.1h1.2v1h-15.1v-1h1.3c1.5,0,2.6-0.5,3.2-1.4c0.4-0.6,0.6-1.9,0.6-3.9v-24.5l-13.7,30.8H148.8z"/>
	<path class="st1" d="M199.1,413h-13.8l-2.4,5.8c-0.6,1.4-0.9,2.5-0.9,3.2c0,0.6,0.3,1,0.8,1.5c0.5,0.4,1.6,0.7,3.3,0.8v1H175v-1
		c1.5-0.3,2.4-0.6,2.9-1.1c0.9-0.9,1.9-2.6,3-5.3l12.5-30.1h0.9l12.4,30.4c1,2.5,1.9,4,2.7,4.8c0.8,0.7,1.9,1.1,3.4,1.2v1h-14v-1
		c1.4-0.1,2.4-0.3,2.9-0.7c0.5-0.4,0.8-0.9,0.8-1.5c0-0.8-0.4-2-1.1-3.8L199.1,413z M198.4,411l-6-14.8l-6.2,14.8H198.4z"/>
	<path class="st1" d="M212.6,388.7h9.6l21.7,27.4V395c0-2.3-0.3-3.7-0.7-4.2c-0.6-0.8-1.7-1.1-3.1-1.1h-1.2v-1h12.4v1h-1.3
		c-1.5,0-2.6,0.5-3.2,1.4c-0.4,0.6-0.6,1.9-0.6,3.9v30.9h-0.9l-23.4-29.5v22.5c0,2.2,0.2,3.7,0.7,4.2c0.7,0.8,1.7,1.1,3.1,1.1h1.3v1
		h-12.4v-1h1.2c1.5,0,2.6-0.5,3.2-1.4c0.4-0.6,0.6-1.9,0.6-3.9v-25.5c-1-1.2-1.8-2.1-2.4-2.5c-0.5-0.4-1.3-0.8-2.3-1.1
		c-0.5-0.2-1.3-0.2-2.3-0.2V388.7z"/>
	<path class="st1" d="M293.5,413h-13.8l-2.4,5.8c-0.6,1.4-0.9,2.5-0.9,3.2c0,0.6,0.3,1,0.8,1.5c0.5,0.4,1.6,0.7,3.3,0.8v1h-11.2v-1
		c1.5-0.3,2.4-0.6,2.9-1.1c0.9-0.9,1.9-2.6,3-5.3l12.5-30.1h0.9l12.4,30.4c1,2.5,1.9,4,2.7,4.8c0.8,0.7,1.9,1.1,3.4,1.2v1h-14v-1
		c1.4-0.1,2.4-0.3,2.9-0.7c0.5-0.4,0.8-0.9,0.8-1.5c0-0.8-0.4-2-1.1-3.8L293.5,413z M292.7,411l-6-14.8l-6.2,14.8H292.7z"/>
	<path class="st1" d="M343.9,425.3h-9.5l-12-17.1c-0.9,0-1.6,0.1-2.2,0.1c-0.2,0-0.5,0-0.7,0c-0.3,0-0.5,0-0.8,0v10.6
		c0,2.3,0.2,3.7,0.7,4.3c0.7,0.8,1.7,1.2,3,1.2h1.4v1h-15.2v-1h1.3c1.5,0,2.6-0.5,3.2-1.5c0.4-0.6,0.6-1.9,0.6-4v-23.6
		c0-2.3-0.2-3.7-0.7-4.3c-0.7-0.8-1.7-1.2-3-1.2h-1.3v-1h12.9c3.8,0,6.5,0.3,8.3,0.9c1.8,0.6,3.3,1.6,4.6,3.1
		c1.2,1.5,1.9,3.3,1.9,5.4c0,2.3-0.7,4.2-2.1,5.9c-1.4,1.7-3.6,2.8-6.6,3.5l7.3,10.5c1.7,2.4,3.1,4,4.3,4.8c1.2,0.8,2.8,1.3,4.7,1.5
		V425.3z M318.7,406.5c0.3,0,0.6,0,0.9,0c0.3,0,0.5,0,0.6,0c3.4,0,5.9-0.8,7.7-2.3c1.7-1.5,2.6-3.4,2.6-5.8c0-2.3-0.7-4.1-2.1-5.6
		c-1.4-1.4-3.2-2.2-5.5-2.2c-1,0-2.4,0.2-4.1,0.5V406.5z"/>
	<path class="st1" d="M363.1,387.8c4.6,0,8.6,1.8,12,5.4c3.4,3.6,5.1,8.1,5.1,13.5c0,5.6-1.7,10.2-5.1,13.8
		c-3.4,3.7-7.5,5.5-12.4,5.5c-4.9,0-9-1.8-12.3-5.4c-3.3-3.6-5-8.2-5-13.9c0-5.8,1.9-10.6,5.8-14.2
		C354.4,389.4,358.4,387.8,363.1,387.8 M362.6,389.8c-3.2,0-5.7,1.2-7.6,3.6c-2.4,3-3.6,7.4-3.6,13.3c0,6,1.2,10.6,3.7,13.8
		c1.9,2.5,4.4,3.7,7.5,3.7c3.3,0,6.1-1.3,8.3-4c2.2-2.7,3.3-6.9,3.3-12.7c0-6.3-1.2-10.9-3.6-14C368.6,391,366,389.8,362.6,389.8"/>
	<path class="st1" d="M433.6,387.4l0.8,12.4h-0.8c-1.1-3.7-2.6-6.4-4.6-8c-2-1.6-4.4-2.5-7.2-2.5c-2.4,0-4.5,0.6-6.4,1.9
		s-3.4,3.2-4.5,5.9c-1.1,2.7-1.6,6.1-1.6,10.1c0,3.3,0.5,6.2,1.5,8.6c1,2.4,2.6,4.3,4.6,5.6c2.1,1.3,4.4,1.9,7.1,1.9
		c2.3,0,4.3-0.5,6.1-1.5c1.8-1,3.7-3,5.8-6.1l0.8,0.5c-1.8,3.3-3.9,5.6-6.2,7.2c-2.4,1.5-5.2,2.3-8.5,2.3c-5.9,0-10.4-2.2-13.7-6.7
		c-2.4-3.3-3.6-7.3-3.6-11.8c0-3.6,0.8-7,2.4-10.1c1.6-3.1,3.8-5.4,6.6-7.1c2.8-1.7,5.8-2.5,9.1-2.5c2.6,0,5.1,0.7,7.6,1.9
		c0.7,0.4,1.3,0.6,1.6,0.6c0.5,0,0.9-0.2,1.2-0.5c0.5-0.5,0.8-1.2,1-2H433.6z"/>
	<path class="st1" d="M448.3,390.3v14.5h7.8c2,0,3.4-0.3,4.1-0.9c0.9-0.8,1.4-2.3,1.5-4.4h1v12.7h-1c-0.2-1.8-0.5-2.9-0.7-3.4
		c-0.3-0.6-0.8-1.1-1.5-1.5c-0.7-0.4-1.8-0.5-3.3-0.5h-7.8v12.1c0,1.6,0.1,2.6,0.2,3c0.1,0.4,0.4,0.6,0.7,0.8c0.4,0.2,1,0.3,2,0.3h6
		c2,0,3.5-0.1,4.4-0.4c0.9-0.3,1.8-0.9,2.6-1.7c1.1-1.1,2.2-2.8,3.3-5h1.1l-3.1,9.2h-27.4v-1h1.3c0.8,0,1.6-0.2,2.4-0.6
		c0.6-0.3,0.9-0.7,1.1-1.3c0.2-0.6,0.3-1.8,0.3-3.5v-23.8c0-2.3-0.2-3.8-0.7-4.3c-0.6-0.7-1.7-1.1-3.1-1.1h-1.3v-1h27.4l0.4,8h-1
		c-0.4-1.9-0.8-3.2-1.2-4c-0.4-0.7-1.1-1.3-2-1.6c-0.7-0.3-1.9-0.4-3.7-0.4H448.3z"/>
	<path class="st1" d="M491.8,424.9l-13.7-30.8v24.4c0,2.3,0.2,3.7,0.7,4.2c0.7,0.8,1.7,1.1,3.1,1.1h1.3v1h-12.4v-1h1.3
		c1.5,0,2.6-0.5,3.2-1.4c0.4-0.6,0.6-1.9,0.6-3.9v-23.9c0-1.6-0.2-2.8-0.5-3.5c-0.2-0.5-0.7-1-1.4-1.3c-0.7-0.4-1.7-0.5-3.2-0.5v-1
		h10.1l12.9,28.6l12.7-28.6h10.1v1h-1.2c-1.5,0-2.6,0.5-3.2,1.4c-0.4,0.6-0.6,1.9-0.6,3.9v23.9c0,2.3,0.2,3.7,0.7,4.2
		c0.6,0.8,1.7,1.1,3.1,1.1h1.2v1h-15.1v-1h1.3c1.5,0,2.6-0.5,3.2-1.4c0.4-0.6,0.6-1.9,0.6-3.9v-24.4l-13.7,30.8H491.8z"/>
	<path class="st1" d="M528.8,390.3v14.5h7.8c2,0,3.4-0.3,4.1-0.9c0.9-0.8,1.4-2.3,1.5-4.4h1v12.7h-1c-0.2-1.8-0.5-2.9-0.7-3.4
		c-0.3-0.6-0.8-1.1-1.5-1.5c-0.7-0.4-1.8-0.5-3.3-0.5h-7.8v12.1c0,1.6,0.1,2.6,0.2,3c0.1,0.4,0.4,0.6,0.7,0.8c0.4,0.2,1,0.3,2,0.3h6
		c2,0,3.5-0.1,4.4-0.4c0.9-0.3,1.8-0.9,2.6-1.7c1.1-1.1,2.2-2.8,3.3-5h1.1l-3.1,9.2h-27.4v-1h1.3c0.8,0,1.6-0.2,2.4-0.6
		c0.6-0.3,0.9-0.7,1.1-1.3c0.2-0.6,0.3-1.8,0.3-3.5v-23.8c0-2.3-0.2-3.8-0.7-4.3c-0.6-0.7-1.7-1.1-3.1-1.1h-1.3v-1H546l0.4,8h-1
		c-0.4-1.9-0.8-3.2-1.2-4c-0.4-0.7-1.1-1.3-2-1.6c-0.7-0.3-1.9-0.4-3.7-0.4H528.8z"/>
	<path class="st1" d="M549.6,388.3h9.6l21.7,27.4v-21.1c0-2.3-0.3-3.7-0.7-4.2c-0.6-0.8-1.7-1.1-3.1-1.1H576v-1h12.4v1h-1.3
		c-1.5,0-2.6,0.5-3.2,1.4c-0.4,0.6-0.6,1.9-0.6,3.9v30.9h-0.9L558.9,396v22.5c0,2.2,0.2,3.7,0.7,4.2c0.7,0.8,1.7,1.1,3.1,1.1h1.3v1
		h-12.4v-1h1.2c1.5,0,2.6-0.5,3.2-1.4c0.4-0.6,0.6-1.9,0.6-3.9v-25.5c-1-1.2-1.8-2.1-2.3-2.5c-0.5-0.4-1.3-0.8-2.4-1.1
		c-0.5-0.2-1.3-0.2-2.3-0.2V388.3z"/>
	<path class="st1" d="M620.1,388.3l0.4,8.6h-1c-0.2-1.5-0.5-2.6-0.8-3.2c-0.5-1-1.3-1.8-2.2-2.3c-0.9-0.5-2.1-0.7-3.6-0.7h-5v28
		c0,2.2,0.2,3.7,0.7,4.2c0.7,0.8,1.7,1.1,3.1,1.1h1.2v1H598v-1h1.3c1.5,0,2.6-0.5,3.2-1.4c0.4-0.6,0.6-1.9,0.6-3.9v-28h-4.3
		c-1.7,0-2.8,0.1-3.5,0.4c-0.9,0.3-1.7,1-2.3,2c-0.7,1-1,2.3-1.2,3.9h-1l0.4-8.6H620.1z"/>
	<path class="st1" d="M253.3,389.7v-1.4H273v1.4h-1.7c-1.9,0-3.2,0.6-4.1,1.8c-0.5,0.8-0.8,2.7-0.8,5.6v24.3c0,3.7-0.4,6.8-1.1,9.1
		c-0.8,2.3-2.1,4.3-3.9,6.1c-1.9,1.7-4.1,2.6-6.7,2.6c-2.1,0-3.8-0.6-5-1.7c-1.2-1.1-1.8-2.4-1.8-3.9c0-1.2,0.3-2.1,0.9-2.7
		c0.7-0.8,1.6-1.1,2.6-1.1c0.7,0,1.4,0.3,2,0.8c0.6,0.5,1.3,1.9,2.2,4.1c0.5,1.3,1.2,2,2,2c0.6,0,1.2-0.4,1.7-1.2
		c0.5-0.8,0.8-2.2,0.8-4.3v-33.9c0-2.5-0.2-4.2-0.4-5c-0.2-0.6-0.7-1.1-1.4-1.6c-1-0.6-2-0.9-3.1-0.9H253.3z"/>
</g>
</svg>
