<?xml version="1.0" encoding="utf-8"?>
<!-- Generator: Adobe Illustrator 19.2.1, SVG Export Plug-In . SVG Version: 6.00 Build 0)  -->
<svg version="1.1" id="layer" xmlns="http://www.w3.org/2000/svg" xmlns:xlink="http://www.w3.org/1999/xlink" x="0px" y="0px"
	 viewBox="0 0 652 652" style="enable-background:new 0 0 652 652;" xml:space="preserve">
<g>
	<g>
		<path d="M588.7,388.5l-1.4,0.3c0.3,1.6,0.6,2.8,0.7,4.3c1.4,0.6,3.1,1,5.6,1c2.5,0,4.3-0.6,5.5-1.6c1.2-0.9,1.7-2.1,1.7-3.5
			c0-1.2-0.5-2.2-1.2-3c-0.7-0.8-1.6-1.5-2.9-2.1c-0.9-0.6-2.2-1.2-3.2-1.8c-0.8-0.6-1.3-1.2-1.3-1.9c0-0.6,0.3-1.1,0.8-1.4
			c0.5-0.3,1.2-0.5,2-0.5c2,0,3,0.8,3.6,3.4l1.4-0.3c-0.4-1.8-0.5-2.8-0.6-3.9c-1.1-0.4-2.7-0.7-4.7-0.7c-2.2,0-3.9,0.5-4.9,1.2
			c-1.3,0.8-1.8,2-1.8,3.1c0,1.2,0.5,2.1,1.1,2.9c0.8,0.9,2.1,1.6,3.5,2.4c1.6,0.9,2.5,1.4,3.1,2c0.4,0.5,0.6,1,0.6,1.6
			c0,0.8-0.3,1.4-0.8,1.8c-0.5,0.5-1.3,0.7-2.3,0.7C591,392.6,589.5,391.6,588.7,388.5 M560.9,376.8c-1.8,0.8-4,1.4-5.8,1.6v1.2
			c1.9,0,2.1,0.3,2.1,2.6v7.5c0,2.3-0.2,2.6-2.1,2.6v1.3h8.3v-1.3c-1.5,0-1.7-0.3-1.7-2.5v-8.4c1.4-1.7,2.5-2.7,3.6-2.7
			c0.8,0,1.4,0.4,1.7,0.9c0.4,0.8,0.5,1.7,0.5,3.1v7.1c0,2.2-0.1,2.4-1.6,2.4v1.3h7.8v-1.3c-1.4,0-1.6-0.2-1.6-2.5v-8.4
			c1.1-1.6,2.3-2.6,3.6-2.6c0.8,0,1.4,0.4,1.7,1.1c0.3,0.7,0.5,1.7,0.5,2.9v7.2c0,2.1-0.2,2.4-1.6,2.4v1.3h7.9v-1.3
			c-1.5,0-1.7-0.3-1.7-2.5v-7.3c0-2.1-0.5-3.4-1.3-4.3c-0.9-1-2.2-1.4-3.6-1.4c-2.5,0-4.2,1.3-5.6,2.8h-0.1
			c-0.3-0.8-0.8-1.4-1.4-1.9c-0.7-0.6-1.8-0.9-3.1-0.9c-2.3,0-4.1,1.2-5.4,2.7h-0.1l-0.1-2.4L560.9,376.8z M540.3,383.9
			c0-2,0.5-3.5,1.1-4.4c0.6-0.9,1.4-1.3,2.2-1.3c1,0,1.6,0.5,2.1,1.2c0.6,1.1,0.8,2.8,0.9,4.4H540.3z M538,378.7
			c-1.5,1.5-2.5,3.7-2.5,6.4c0,3,0.8,5.1,2.1,6.6c1.6,1.7,3.8,2.4,6.4,2.4c1.9,0,3.4-0.5,4.6-1.3c1.1-0.7,1.9-1.7,2.5-2.7l-1.3-0.7
			c-0.5,0.9-1.1,1.6-1.8,2.1c-0.9,0.6-2,0.9-3.1,0.9c-1.3,0-2.6-0.7-3.4-1.8c-0.8-1.3-1.2-3-1.2-5.1h10.8c0-2.6-0.8-4.8-2-6.3
			c-1.3-1.5-3.1-2.2-5.5-2.2C541.2,376.8,539.3,377.5,538,378.7 M520.6,377.5v1.2h2v10.5c0,3.8,2.3,4.8,4.9,4.8
			c2.1,0,3.5-0.5,4.6-1.5l-0.8-1.2c-0.7,0.6-1.4,0.9-2.3,0.9c-1.2,0-1.9-0.7-1.9-2.8v-10.6h4.2v-1.5h-4.2v-5.2h-1.3
			C524.8,375.7,523.3,377.3,520.6,377.5 M505,388.5l-1.4,0.3c0.3,1.6,0.6,2.8,0.7,4.3c1.4,0.6,3.1,1,5.6,1c2.5,0,4.3-0.6,5.5-1.6
			c1.2-0.9,1.7-2.1,1.7-3.5c0-1.2-0.5-2.2-1.2-3c-0.7-0.8-1.6-1.5-2.9-2.1c-0.9-0.6-2.2-1.2-3.2-1.8c-0.8-0.6-1.3-1.2-1.3-1.9
			c0-0.6,0.3-1.1,0.8-1.4c0.5-0.3,1.2-0.5,2-0.5c2,0,3,0.8,3.6,3.4l1.4-0.3c-0.4-1.8-0.5-2.8-0.6-3.9c-1.1-0.4-2.7-0.7-4.7-0.7
			c-2.2,0-3.9,0.5-4.9,1.2c-1.3,0.8-1.8,2-1.8,3.1c0,1.2,0.5,2.1,1.1,2.9c0.8,0.9,2.1,1.6,3.5,2.4c1.6,0.9,2.5,1.4,3.1,2
			c0.4,0.5,0.6,1,0.6,1.6c0,0.8-0.3,1.4-0.8,1.8c-0.5,0.5-1.3,0.7-2.3,0.7C507.2,392.6,505.8,391.6,505,388.5 M482.6,399.5
			c0,0.8,0.4,1.5,1,2c0.7,0.6,1.8,0.9,3,0.9c1.4,0,2.5-0.5,3.3-1.4c0.9-0.9,1.5-2.1,2.1-3.3l6.8-17.5c0.6-1.6,1-1.7,2-1.7v-1.3h-5.2
			v1.3c1.4,0,1.6,0.3,1.2,1.4l-3.1,8.6h-0.1l-3.3-8c-0.7-1.5-0.5-2,1-2v-1.3h-8.1v1.3c1.2,0,1.4,0.1,2.4,2.3l5.9,12.7l-1.4,4.1
			c-0.6,1.4-1.6,3.3-2.8,3.2c-0.6,0-1-0.6-1.3-1.4c-0.3-0.8-0.8-1.4-1.9-1.4C483.2,398,482.6,398.6,482.6,399.5 M463.1,386.6
			l-1.9,0.5c0.5,1.7,0.9,3.5,1.2,5.8c2,0.8,4.8,1.3,7.3,1.3c3.6,0,6.2-1,7.9-2.5c1.4-1.3,2.2-3.1,2.2-5c0-1.8-0.6-3.2-1.6-4.4
			c-1.4-1.6-3.4-2.5-6.5-4.1c-2.3-1.2-3.6-1.9-4.4-2.7c-0.7-0.7-1-1.6-1-2.4c0-0.9,0.3-1.7,1-2.3c0.8-0.7,2.1-1.2,3.8-1.2
			c3.8,0,4.8,1.3,5.6,5.1l2-0.4c-0.4-2.2-0.7-4.1-0.9-5.5c-1.7-0.6-3.9-1.1-6.6-1.1c-3,0-5.2,0.7-6.8,1.7c-1.7,1.2-2.5,2.9-2.5,4.7
			c0,1.5,0.5,2.7,1.2,3.8c1.4,1.9,4.1,3,6.4,4.2c2.3,1.1,3.7,1.8,4.7,3c0.7,0.8,1.1,1.6,1.1,2.8c0,1.3-0.6,2.4-1.5,3.1
			c-0.9,0.8-2.3,1.2-3.8,1.2C466.4,392.3,464.3,391.2,463.1,386.6 M433.8,377.5v1.2h2v10.5c0,3.8,2.3,4.8,4.9,4.8
			c2.1,0,3.5-0.5,4.6-1.5l-0.8-1.2c-0.7,0.6-1.4,0.9-2.3,0.9c-1.2,0-1.9-0.7-1.9-2.8v-10.6h4.2v-1.5h-4.2v-5.2H439
			C437.9,375.7,436.4,377.3,433.8,377.5 M422.7,376.8c-1.9,0.9-4,1.4-5.8,1.6v1.2c1.8,0,2,0.3,2,2.4v7.7c0,2.4-0.2,2.6-2,2.6v1.3
			h8.9v-1.3c-2.1,0-2.3-0.4-2.3-2.6v-8.2c1.1-1.7,2.1-2.6,2.9-2.6c0.6,0,0.8,0.3,1.2,1.3c0.3,1,1,1.4,1.7,1.4c1,0,1.6-0.7,1.6-1.8
			c0-0.8-0.4-1.6-0.9-2.1c-0.6-0.5-1.3-0.9-2.2-0.9c-1.7,0-2.9,0.9-4.3,2.7h-0.1l-0.1-2.4L422.7,376.8z M399.5,385.4
			c0-2.7,0.4-4.6,1.3-5.8c0.7-0.9,1.7-1.4,2.9-1.4h0c1.3,0,2.2,0.5,2.9,1.4c0.8,1.2,1.3,3,1.3,5.8c0,2.8-0.5,4.7-1.3,5.8
			c-0.7,0.9-1.6,1.4-2.9,1.4c-1.3,0-2.2-0.5-2.9-1.4C400,390.1,399.5,388.3,399.5,385.4 M397.3,378.8c-1.7,1.5-2.6,3.7-2.6,6.5
			c0,3.2,0.9,5.4,2.6,6.8c1.6,1.3,3.7,1.9,6.3,1.9h0c2.8,0,5-0.6,6.7-2.1c1.5-1.4,2.4-3.5,2.4-6.6c0-2.8-0.9-5-2.5-6.4
			c-1.6-1.4-3.7-2.1-6.6-2.1C400.9,376.8,398.9,377.5,397.3,378.8 M378,380.9c1-1.2,2.2-2.3,3.8-2.3c1.1,0,2.1,0.5,2.7,1.6
			c0.7,1.1,1.1,2.7,1.1,4.9c0,2.6-0.4,4.2-1,5.4c-0.7,1.2-1.8,1.7-2.8,1.7c-1.5,0-2.7-0.8-3.7-2V380.9z M377.3,376.8
			c-1.9,0.9-4.2,1.4-5.9,1.6v1.2c2,0,2.1,0.3,2.1,2.6v16c0,2.2-0.2,2.6-2.1,2.6v1.3h8.6v-1.3c-1.8,0-2-0.3-2-2.5v-5.9h0.1
			c1.1,1.1,2.6,1.7,4.8,1.7c2.5,0,4.3-0.8,5.6-2.3c1.3-1.6,1.9-3.8,1.9-6.5c0-2.9-0.9-5-2.2-6.4c-1.3-1.4-3-2-4.9-2
			c-2.2,0-3.8,0.7-5.2,2.2h-0.1l-0.1-1.9L377.3,376.8z M350.5,386.6l-2,0.5c0.5,1.7,0.9,3.5,1.2,5.8c2,0.8,4.8,1.3,7.3,1.3
			c3.6,0,6.2-1,7.9-2.5c1.4-1.3,2.2-3.1,2.2-5c0-1.8-0.6-3.2-1.6-4.4c-1.4-1.6-3.4-2.5-6.5-4.1c-2.3-1.2-3.6-1.9-4.4-2.7
			c-0.7-0.7-1-1.6-1-2.4c0-0.9,0.3-1.7,1-2.3c0.8-0.7,2.1-1.2,3.8-1.2c3.8,0,4.8,1.3,5.6,5.1l2-0.4c-0.4-2.2-0.7-4.1-0.9-5.5
			c-1.7-0.6-3.9-1.1-6.6-1.1c-3,0-5.2,0.7-6.8,1.7c-1.7,1.2-2.5,2.9-2.5,4.7c0,1.5,0.5,2.7,1.2,3.8c1.4,1.9,4.1,3,6.4,4.2
			c2.3,1.1,3.7,1.8,4.7,3c0.7,0.8,1.1,1.6,1.1,2.8c0,1.3-0.6,2.4-1.5,3.1c-0.9,0.8-2.3,1.2-3.8,1.2
			C353.8,392.3,351.7,391.2,350.5,386.6 M310.9,387.4c0-1.2,0.3-2.2,1-3c0.4-0.6,1-1.1,1.6-1.5c1.9,2.8,4.1,5.7,6.3,8
			c-1.1,1-2.4,1.6-4.1,1.6c-1.4,0-2.6-0.5-3.5-1.4C311.4,390.1,310.9,388.8,310.9,387.4L310.9,387.4z M315.7,378.9
			c-1.4-2-2.1-3.6-2.1-5c0-0.9,0.3-1.7,0.8-2.3c0.6-0.6,1.4-0.9,2.3-0.9h0c0.9,0,1.6,0.3,2.1,0.9c0.5,0.5,0.8,1.3,0.8,2.1
			c0,0.7-0.2,1.4-0.5,2.1c-0.3,0.6-0.8,1.3-1.6,1.9C317,378.1,316.4,378.5,315.7,378.9 M308.1,383.3c-1.1,1.2-1.6,2.6-1.6,4.3
			c0,2.2,1.1,3.9,2.8,5.1c1.5,0.9,3.5,1.4,5.8,1.4c2.6,0,4.8-0.8,6.5-2.1c2.1,1.7,4,2.1,5.6,2.1c2.1,0,3.6-1,4.3-1.8l-0.9-1
			c-0.5,0.5-1.3,0.9-2.2,0.9c-1.3,0-2.4-0.7-4-2.4c1.6-1.7,2.8-3.8,3.3-5.9c0.8-2,1.3-2.3,3-2.3v-1.4h-7v1.4c1.4,0,2,0.3,2,1.3
			c0,1.8-0.8,3.8-2.5,5.6c-2.5-2.8-4.4-5.4-6.2-7.9c0.9-0.4,1.8-0.9,2.6-1.3c1.2-0.7,2.1-1.5,2.7-2.3c0.7-0.9,1-2,1-3
			c0-1.4-0.7-2.6-1.9-3.4c-1.1-0.8-2.7-1.2-4.7-1.2c-2,0-3.7,0.5-4.9,1.5c-1.2,0.9-1.9,2.3-1.9,4c0,1.8,1,3.7,2.4,5.9
			C310.3,381.5,308.9,382.4,308.1,383.3 M286.1,368.4c-2.1,0.9-4.3,1.4-6.2,1.6v1.2c2.1,0,2.2,0.4,2.2,2.4v16c0,2.3-0.1,2.6-2.2,2.6
			v1.3h8.8v-1.3c-1.9,0-2.1-0.4-2.1-2.6v-21L286.1,368.4z M264.9,389c0-1.4,0.7-2.3,1.6-3c0.9-0.7,2.2-1.2,3.4-1.6v6
			c-0.6,0.6-1.4,1.4-2.7,1.4c-0.8,0-1.3-0.3-1.7-0.8C265.1,390.6,264.9,389.9,264.9,389 M260.2,389.7c0,1.4,0.6,2.5,1.5,3.2
			c0.9,0.7,2.2,1.1,3.3,1.1c2.7,0,4-0.9,5-2h0.1c0.5,1.2,1.4,1.8,3.2,1.8c1.5,0,2.4-0.2,3.3-0.5l-0.2-1.3c-0.3,0.2-0.6,0.3-0.9,0.3
			c-0.7,0-1.1-0.6-1.1-2.3v-7.5c0-1.7-0.3-3-1.3-4c-1-1.1-2.4-1.7-5.4-1.7c-2.4,0-3.8,0.4-4.8,0.9c-1.3,0.6-2.1,1.7-2.1,2.7
			c0,0.8,0.5,1.5,1.7,1.5c1.2,0,1.7-0.5,2-1.3c0.3-0.8,0.6-1.3,1-1.7c0.5-0.5,1-0.8,1.9-0.8c1,0,1.6,0.3,2,1
			c0.4,0.6,0.5,1.4,0.5,2.4v1.5l-2.2,0.5c-2.3,0.5-4,1.2-5.3,2C260.9,386.7,260.2,388,260.2,389.7 M243.5,379.3
			c-1.4,1.4-2.2,3.4-2.2,6.1c0,2.7,0.8,5.2,2.5,6.8c1.4,1.3,3.2,2,5.9,2c1.8,0,3.1-0.5,4.2-1.1c1.2-0.7,2-1.7,2.6-2.6l-1.3-0.8
			c-0.6,0.9-1.2,1.5-1.9,1.9c-0.8,0.5-1.7,0.8-2.6,0.8c-1.3,0-2.6-0.6-3.4-1.9c-0.7-1.2-1.1-3-1.1-5.2c0-2.6,0.5-4.2,1.2-5.2
			c0.7-1.2,1.8-1.7,2.8-1.7c1.2,0,1.9,0.7,2.4,1.9c0.3,0.7,0.6,1.1,1,1.6c0.3,0.3,0.7,0.4,1.2,0.4c0.9,0,1.4-0.7,1.4-1.6
			c0-0.9-0.5-1.7-1.4-2.3c-1.1-0.8-2.6-1.3-4.6-1.3C247.3,376.8,245.1,377.6,243.5,379.3 M234.9,376.8c-2.2,0.9-4.2,1.4-6.2,1.6v1.2
			c2.1,0,2.2,0.2,2.2,2.5v7.6c0,2.3-0.2,2.6-2.2,2.6v1.3h8.8v-1.3c-1.9,0-2.1-0.3-2.1-2.6v-12.6L234.9,376.8z M235.5,372.4
			c0-1.6-1.2-2.7-2.6-2.7h0c-1.4,0-2.6,1.1-2.6,2.7c0,1.6,1.2,2.7,2.6,2.7C234.3,375.2,235.5,374.1,235.5,372.4 M213.9,377.5v1.2h2
			v10.5c0,3.8,2.3,4.8,4.9,4.8c2.1,0,3.5-0.5,4.6-1.5l-0.8-1.2c-0.7,0.6-1.4,0.9-2.3,0.9c-1.2,0-1.9-0.7-1.9-2.8v-10.6h4.2v-1.5
			h-4.2v-5.2h-1.3C218.1,375.7,216.6,377.3,213.9,377.5 M197.7,380.9c1-1.2,2.2-2.3,3.8-2.3c1.1,0,2.1,0.5,2.7,1.6
			c0.7,1.1,1.1,2.7,1.1,4.9c0,2.6-0.4,4.2-1,5.4c-0.7,1.2-1.8,1.7-2.8,1.7c-1.5,0-2.7-0.8-3.7-2V380.9z M197,376.8
			c-1.9,0.9-4.2,1.4-5.9,1.6v1.2c2,0,2.1,0.3,2.1,2.6v16c0,2.2-0.2,2.6-2.1,2.6v1.3h8.6v-1.3c-1.8,0-2-0.3-2-2.5v-5.9h0.1
			c1.1,1.1,2.6,1.7,4.8,1.7c2.5,0,4.3-0.8,5.6-2.3c1.3-1.6,1.9-3.8,1.9-6.5c0-2.9-0.9-5-2.2-6.4c-1.3-1.4-3-2-4.9-2
			c-2.2,0-3.8,0.7-5.2,2.2h-0.1l-0.1-1.9L197,376.8z M166.3,380.9c0-4.7,0.8-7.5,2.3-9.2c1.4-1.6,3.2-2.3,5.3-2.3h0
			c2.1,0,4,0.7,5.3,2.3c1.4,1.7,2.3,4.5,2.3,9.2c0,3.9-0.7,7.1-2.2,9.1c-1.2,1.5-3.2,2.4-5.4,2.4c-2.2,0-4.1-0.9-5.4-2.4
			C167,388,166.3,384.8,166.3,380.9 M165.1,370.5c-2.5,2.2-3.8,5.7-3.8,10.3c0,4.5,1.2,7.7,3.2,9.8c2.2,2.3,5.3,3.4,9.4,3.4h0
			c4.1,0,7.3-1.1,9.5-3.4c2-2.1,3.2-5.3,3.2-9.8c0-4.6-1.4-8.1-3.8-10.3c-2.3-2-5.3-2.9-8.8-2.9
			C170.5,367.6,167.4,368.5,165.1,370.5 M250.7,252.2h-36.2c-0.4,14.1-6.5,25.4-16.8,25.4v-25.8h-36.1v78.7h36.1
			c0,0-0.3-28.5,0-28.5c9,0,16.9,11.8,16.9,26.4c0,0.8,0,1.6-0.1,2.5H253c0-17.4-7-32.1-17.3-39.5
			C245.2,283.7,251.1,268.9,250.7,252.2 M348.1,291.3c0-27.2-22-49.2-49.1-49.2c-13.6,0-26,5.6-34.9,14.6c6-4.6,13.7-7,21.9-7
			c19.5,0,35.3,15.3,35.3,34.3c0,3.8-0.5,7.4-1.7,10.8c-2.6,8.1-10.4,13.3-19.7,13.3c-0.7,0-0.1,0-0.1,0c-9.1,0-16-7.1-16-16.2
			c0-9.1,6.5-16.8,16-16.7c8.8,0.1,14.7,6.4,16.2,14.9c0,0,0.1,0.3,0.5,0.2c0.3,0,0.4-0.6,0.4-0.6c0.1-1.3,0-0.6,0.1-1.9
			c0.5-20.2-13.6-33.8-30.4-33.8c-0.2,0-0.3,0-0.5,0c-19.3,0-35.3,17.7-35.3,39.6c0,9.7,3,18.9,8.1,25.8c7.7,12.6,22.8,20.8,40,20.8
			c10.9,0,21.1-3.4,29-9.1C340.3,322,348.1,307.5,348.1,291.3 M405.7,330.5h26.6v-78.7h-36.1v24.3l-15.5-24.3h-27.3v78.7h36.1v-23.4
			L405.7,330.5z M522.3,292.8v-41h-36.2l0,40.9c0,2.2-1.8,4.1-4.1,4.1c-2.2,0-4.1-1.8-4.1-4.1v-40.9h-36.1v41
			c0,22.2,18,40.2,40.2,40.2C504.3,333,522.3,315,522.3,292.8 M565.1,274.1c0.6-2.1,3.8-2.9,7.1-1.9c2.4,0.6,4.7,1.4,7.1,2.4
			c4.3,1.9,8.2,4.3,11.4,7.1l0.4-1.3l8-23.4c-9.2-3.4-22.9-5.1-29.3-5.4c-5.1-0.2-10,0.3-14.7,1c-0.5,0.1-0.8,0.3-1.3,0.3
			c-15.3,1.9-24.9,12.3-24.9,24.2c0,9.9,7.4,18.7,18.1,22.6l8.4,3.5c3.7,1.3,5.3,3.7,4.6,5.7c-0.7,2-3.9,3.2-7.1,2.1
			c-2.3-0.7-4.4-1.6-6.8-2.8c-4.2-2.1-8.1-4.9-11-7.6l-8.5,26.5c9.2,3.4,20.7,5.4,33.2,5.4c5.1,0,10-0.3,14.7-1
			c0.5-0.1,0.8-0.3,1.3-0.3c14.2-2.4,24.9-12.3,24.9-24.2c0-9.9-7.5-18.1-18.1-22.4c-3.9-1.6-4.9-2-8.9-3.5
			c-2.1-0.8-3.4-1.2-3.7-1.3C565.9,278.7,564.4,276.2,565.1,274.1 M159.8,352.4h441.7v-9.5H159.8V352.4z M613.9,265.3
			c-0.3,0.1-0.8,0.2-1.5,0.2H611v-3.3h1.4c0.9,0,1.5,0.1,1.9,0.3c0.4,0.2,0.6,0.7,0.6,1.3C614.8,264.6,614.5,265,613.9,265.3
			 M615.8,266.9c-0.3-0.5-0.9-0.8-1.6-0.9c0.6-0.1,1-0.2,1.3-0.4c0.6-0.4,0.9-1,0.9-1.8c0-1.1-0.5-1.9-1.4-2.3
			c-0.5-0.2-1.3-0.3-2.5-0.3h-3.2v9.1h1.6v-3.6h1.3c0.8,0,1.4,0.1,1.8,0.3c0.6,0.3,0.9,1,0.9,2.1v0.7l0,0.3c0,0,0,0.1,0,0.1
			c0,0,0,0.1,0,0.1h1.5l-0.1-0.1c0-0.1-0.1-0.2-0.1-0.5c0-0.2,0-0.5,0-0.7v-0.7C616.3,267.8,616.1,267.3,615.8,266.9 M619.8,265.7
			c0,2-0.7,3.7-2.1,5.1c-1.4,1.4-3.1,2.1-5,2.1c-2,0-3.6-0.7-5-2.1c-1.4-1.4-2.1-3.1-2.1-5.1c0-2,0.7-3.6,2.1-5
			c1.4-1.4,3.1-2.1,5-2.1c2,0,3.6,0.7,5,2.1C619.1,262,619.8,263.7,619.8,265.7 M620.9,265.7c0-2.3-0.8-4.2-2.4-5.8
			c-1.6-1.6-3.6-2.4-5.8-2.4c-2.3,0-4.2,0.8-5.8,2.4c-1.6,1.6-2.4,3.6-2.4,5.8c0,2.3,0.8,4.2,2.4,5.9c1.6,1.6,3.5,2.4,5.8,2.4
			c2.3,0,4.2-0.8,5.8-2.4C620.1,269.9,620.9,268,620.9,265.7"/>
		<path d="M91.2,300.1c4.1-3.3,6.6-9.6,6.4-16.7H82.2c-0.2,6-2.8,10.9-7.2,10.9v-11H59.6v33.6H75c0,0-0.1-12.2,0-12.2
			c3.8,0,7.2,5,7.2,11.3c0,0.4,0,0.7,0,1h16.5C98.6,309.6,95.6,303.3,91.2,300.1 M110.7,301.4c0,17.3-14,31.3-31.3,31.3
			c-17.3,0-31.3-14-31.3-31.3c0-17.3,14-31.3,31.3-31.3C96.7,270.2,110.7,284.2,110.7,301.4 M118.8,294.4h17.1v-23.9h-35.5
			c-0.8-0.7-1.4-1.4-2.2-2c6.3-5.1,10.2-14.8,9.9-25.8H84.1c-0.2,9.3-4.3,16.8-11.1,16.8v-17.1H49.1v35.4c-0.8,0.8-1.4,1.5-2,2.3
			c-5.1-6.3-14.8-10.2-25.8-9.9v23.9c9.3,0.2,16.8,4.3,16.8,11.1H20.9v23.9l35.1-0.2c0.8,0.8,1.7,1.6,2.6,2.2
			c-6.3,5.1-10.2,14.8-10,25.8h23.9c0.2-9.3,4.3-16.8,11.1-16.8v17.1h23.9v-35.5c0.7-0.8,1.4-1.4,2-2.3c5.1,6.3,14.8,10.2,25.8,10
			v-23.9C126.3,305.3,118.8,301.3,118.8,294.4"/>
	</g>
</g>
</svg>
