<?xml version="1.0" encoding="utf-8"?>
<!-- Generator: Adobe Illustrator 19.2.1, SVG Export Plug-In . SVG Version: 6.00 Build 0)  -->
<svg version="1.1" id="layer" xmlns="http://www.w3.org/2000/svg" xmlns:xlink="http://www.w3.org/1999/xlink" x="0px" y="0px"
	 viewBox="0 0 652 652" style="enable-background:new 0 0 652 652;" xml:space="preserve">
<style type="text/css">
	.st0{fill:#F9BE00;}
	.st1{fill:#0083C9;}
</style>
<path class="st0" d="M160.9,195.8v78.3l-23.9,0l-27.5,37.8h-7.2v-38H71.9v99.3h30.5v-37.9h7.2l28.2,37.9h23.2v84v5.3
	c-77.7,0-140.6-63-140.6-140.6s63-140.6,140.6-140.6c77.7,0,140.6,63,140.6,140.6c0,18-4.1,36.1-10.3,51.9l-15.7,0
	c6.9-15.6,11.4-33.7,11.4-51.9C287,252.2,230.5,195.8,160.9,195.8"/>
<path class="st1" d="M204,432.6c0.4-5.4-1.4-8.5-8.7-12.5c-5.1-2.8-7-5.3-5.8-8.3c0.7-2.1,2.8-3,5.2-2.6c2.9,0.2,4.3,0.9,5,3.8h2.8
	l-0.4-6.3c-14.1-3-19.1,2.8-18.9,8.8c0.3,5,2.7,7.8,8.6,11c4.7,2.5,5.7,3.9,6,6.5c0.3,3-2,6.4-5.7,6.1c-4-0.2-6.1-1.4-6.8-5.6h-3
	l0.4,7.1C194.8,445.7,203.6,438.8,204,432.6"/>
<path class="st1" d="M261.1,423.4c0.9,7.7-2.3,15.9-10.5,15.6c-7.2-0.2-10.6-8.2-11.2-14.5c-0.9-7.8,2.3-16,10.4-15.7
	C257,409,260.3,417.1,261.1,423.4 M268.3,423c-0.4-10-8.9-17.4-18.8-17.2c-9.3,0.3-18.1,7.8-17.6,19.3c0.4,10.1,8.9,17.5,18.9,17.2
	C259.9,442,268.7,434.5,268.3,423"/>
<path class="st1" d="M328.6,385.9c1.4-1.6,0.4-4.5-4.1-6.3c-6-2.4-23.5,0-23.5,24.5c-0.2,2.4-4.2,3.2-5.8,3.2v2.5h5.6v24
	c0,4.6-2,5.1-6.8,5v2.5l7.6-0.2h6l8.1,0.2v-2.5c-6.2,0.1-7.9-0.2-7.9-6v-22.9h10.6v-3.3h-10.7l0.1-8.1c0.1-18.1,12-16.4,14.6-12.4
	C323.9,388.3,327.1,387.6,328.6,385.9"/>
<path class="st1" d="M365.3,439.3l-0.9-2.7c-11.7,4.1-10.8-1.7-10.8-6.2V410h10.8v-3.4h-10.8v-7.1h-4.2c-1.4,4.4-3.1,7.1-7.6,7.9
	v2.6h4.3v23.8C346.1,439.7,347.8,447.2,365.3,439.3"/>
<path class="st1" d="M430.1,441.9h-2.7H430.1z M408.6,441.9h-2.9H408.6z M446.2,409v-2.4l-3.3,0.1l-3.4-0.1h-2.9v2.4
	c2.5,0,3,1.1,1.8,3.9l-7.5,19.8l-6.8-16.8c-2.4-6-1.4-6.9,1.3-6.9v-2.4l-4.4,0.1h-4.6l-4.9-0.1v2.4c3.1,0,4.7,3.7,2.4,9.9l-5,13.7
	l-8-19.6c-1.3-3-0.8-4.1,2.3-4.1v-2.4l-5.3,0.1h-3l-6-0.1v2.4c2.7,0,3.6,1.9,4.7,4.5l11.7,28.4h4.1l8.4-22.5l9.2,22.5h4.1l11-28.1
	C443.6,410.3,443.9,409,446.2,409"/>
<path class="st1" d="M490,434.4c-8.1,6.3-12.1,1.8-12.1-1.7c0-4.5,4-6.9,12.1-7V434.4z M503.7,439.3l-1.4-2c-4.4,2.9-4.9-0.7-4.9-4
	v-19.2c0-5.2-2.4-8.1-9.4-7.9c-5.9,0.2-12.9,3.4-15.4,6.7c-1.2,1.7-2,4.8,0.3,4.9c1.5,0.1,5.8-1.2,5.8-2.3c0-3.5,3.2-6,8.3-6.1
	c3,0,3,1.9,3,6.6v6.6c-12.4-0.3-19.3,5-19.6,11.2c-0.3,6,6.6,13.8,19.8,4.2C490.2,440.9,495.7,445.4,503.7,439.3"/>
<path class="st1" d="M551,417.4c0.1,4.7-4.1,7.5-9.6,7.3v-15.3C547.4,408.3,551,412,551,417.4 M566.5,441.4V439
	c-3,0-6.8-2.9-14.8-12.7c4.5-1.7,7.1-5.1,6.8-9.9c-0.4-6.9-6.1-10.4-17.6-9.8l-4.7,0.2l-6.6-0.1v2.4c3.7,0,4.2,1,4.2,3.6v22.5
	c0,3-0.4,3.9-4.2,3.9v2.3l4.9-0.2h5.7l5,0.2v-2.3c-3.9,0-3.9-0.7-3.9-4.1v-7c0.9,0,1.9-0.1,2.8-0.2
	C548.7,433.8,556.8,443.3,566.5,441.4"/>
<path class="st1" d="M613.9,418.2c0,2.5-1,2.7-6.4,2.7h-10.3c0.2-5.7,3.3-11.4,8.4-11.5C611.1,409.2,613.9,414.3,613.9,418.2
	 M620.3,438.5l-0.7-2.3c-17,6.7-22.2-5.4-22.2-11.9c6.3-0.1,14.8-0.2,20.7-0.1c1.2,0,2-0.2,2.1-2.7c0.4-7.9-5.1-15.3-14-15.1
	c-8.2,0.1-16,7.1-16,18.7C590.2,435,599,448.7,620.3,438.5"/>
<path class="st0" d="M187.2,274H216c4.3,16.9,7.7,38.8,11.7,53.9L236,274h29.7l-20.6,99.1h-29.7L202,307.3l-14.3,65.9h-17.6
	l-40.5-50.9l38.2-45.8l7,50.6c0.6-0.1,0.9,0.9,1.3,1.6L187.2,274z"/>
</svg>
