<?xml version="1.0" encoding="utf-8"?>
<!-- Generator: Adobe Illustrator 19.0.0, SVG Export Plug-In . SVG Version: 6.00 Build 0)  -->
<svg version="1.1" id="layer" xmlns="http://www.w3.org/2000/svg" xmlns:xlink="http://www.w3.org/1999/xlink" x="0px" y="0px"
	 viewBox="-153 -46 652 652" style="enable-background:new -153 -46 652 652;" xml:space="preserve">
<style type="text/css">
	.st0{fill:#004097;}
</style>
<path class="st0" d="M469.7,69.8c7.4-15.2,19.6-30.4,19.6-30.4l-23.3,5c0,0-6.5-18.4-30.1-19.1c-31.1-1-45,41.3-45,41.3
	c-3,7.8-8.8,5.3-8.8,5.3c-44.6-50.2-222.9-3.6-355.2,165.5l1.1,0.9c0,0,126.1-101.5,232.2-86.1c6.5,1,32.5,3.2,9.8,23.8
	c-9.8,8.9-63.3,50.6-121.6,70.8c-59.7,20.8-107.8,19.8-107.8,19.8c-65.5,4.9-194.3-27.8-194.3-27.8l-1.5,1
	c50.5,29.8,196.4,38.6,196.4,38.6c1.9,0,0.8,2.1,0.8,2.1C-50.4,334.2-80,386.5-80,386.5l1.8,1.1c0,0,85.4-95.8,179.3-109.6
	c149.8-22.2,137.8-15.6,196.6-31.2c4.5-1.2,3.8,1.7,0.3,5.9c-39.8,52.3-139.3,76.8-186.9,86.3l0.2,1.1c0,0,95.3-1.8,199.6-42.1
	c104.5-40.1,135.1-89.5,140.4-117.8c3.9-21.8-6.7-33-11.2-37.7c-0.9-0.8-2.3-2.4-0.6-6C439.6,136.6,457.2,95.1,469.7,69.8
	 M426.2,130c-7.7,26.9-20.9,54.7-82.8,88.7c-63.7,35.1-167.6,39.5-167.6,39.5c-15.3,1.4-14.6-0.3-0.7-4.9
	c70.2-22.5,90.9-36.3,135.8-62.7c50.1-29.5,101.3-69.5,101.3-69.5S434.8,100.8,426.2,130"/>
<path class="st0" d="M534.1,479.7c0.2,8,0.1,16.5,0.3,24.8c38.6,0,30.6,0.1,49.1-0.4c1.1,0,1.5,0.7,1.5,1.5L585,519
	c0,0.7-1,0.9-1.7,0.9c-6.4-0.1-9-0.1-12.9-0.1h-12.9c-18.9,0-10.5,0-46.9,0.6c-1.3,0-2.6,0.1-3.8,0.1c0,0-1.4-0.2-1.4-1.5
	c1-7.3,1-14.8,1.3-22.2c0.7-22.5,0.1-45.2-0.3-67.8c0-0.2-0.2-1.2,1-1.2c25.4-0.1,50.7,0.4,75.9-0.5c1.2,0,1.4,1,1.4,1.5l0,13.7
	c0,0.5-0.7,0.9-1.7,1c-13.1-0.1-26-0.3-39.1-0.3h-9.9c0,0-0.1,14.5-0.1,21.9c13.8,0.4,28.4,0.4,42.3,0.3c1.3,0,1.3,0.7,1.3,1.2
	c0,0-0.2,2.5-0.7,3.3c-3.2,5.6-24.6,9.7-42.4,10H534.1z M314.3,480.8c17.8-0.3,38.5-4.4,41.7-10c0.6-0.9,0.7-3.3,0.7-3.3
	c0.1-0.5,0-1.2-1.3-1.2c-13.7,0.1-28.2,0.1-41.9-0.3l0.1-23h8.3c13.6,0,25.3,0.1,38.9,0.3c1,0,1.7-0.4,1.7-1l0.2-13.7
	c0-0.9-0.3-1.5-1.4-1.5c-25.9,0.8-49.3,0.4-75.4,0.5c-0.7,0-1,0.4-1,1.2c0.4,22.6,1,45.3,0.3,67.8c-0.3,7.4-0.2,14.9-1.2,22.2
	c-0.1,0.9,0.5,1.5,1.4,1.5l26.6-1.1c0.9,0,1.5-0.4,1.5-1.2l0-16c0,1.1,0,2.2,0.1,3.3l0-9.8l0-15L314.3,480.8z M-176.5,519.9
	c1,0,1.6-0.4,1.6-0.9l0.5-13.5c0-1-1.3-1.4-2-1.4c-13.5,0.4-27.7,0.4-41.4,0c-0.1-18,0-35.9,0.3-53.8c0.1-7.3,0.1-14.6,0.5-21.6
	c0-0.6-0.7-1.6-1.4-1.6l-26.8,0.8c-0.8,0.1-0.9,0.7-0.9,1.2c0.4,22.6,1,45.3,0.3,67.8c-0.3,7.4-0.2,14.9-1.3,22.2
	c0,1.3,1.4,1.5,1.4,1.5c14.3-0.3,28.7-0.7,43.2-0.7h14.4C-184.9,519.8-182.5,519.8-176.5,519.9 M28.6,434.4c0.3-0.6-0.1-1.2-0.9-1.5
	c-13.6-4.9-24.2-6.6-36.9-6.6c-25.4,0-44.6,8.7-40.5,27.5c5.2,24.2,54.8,25.7,58.1,40.8c1.5,7-6.2,11.5-21.3,11.5
	c-9.2,0-25.9-2.7-37.3-7.8c-0.6-0.3-1.5-0.1-1.6,0.7c-1.1,6.5-1.3,8-2.3,12.9c-0.2,0.8,0.1,1.3,0.7,1.5c13.9,5.4,31.6,8.1,44.3,8.1
	c14.5,0,30.4-1.9,39.4-10.1c5.6-5.3,7.7-11.7,6.1-19.2C30.7,465.8-20,463-22.8,450.3c-1-4.8,6-8.6,17.6-8.6c9.9,0,18.2,1.5,27.9,5
	c0.8,0.3,1.7,0.5,1.9-0.2C26.2,441.1,26.4,439.7,28.6,434.4 M115.8,481.4c-4.5,0.1-9,0.1-11.5,0.1h-6.8c-2.4,0-5.7,0-9.1-0.1
	l14.2-32.9L115.8,481.4z M46.4,519.3c-0.3,0.4,0,1.3,1,1.2l22.7-0.6c1.2-0.1,1.3-0.5,1.5-0.9l11.3-24.8h9.9c7.7,0,20.4,0.1,28.1,0.3
	l10,25.2c0,0,0.2,0.8,1,0.8c0,0,27.3-1.1,28.1-1.1c1.1,0,1.4-0.2,1.2-0.8c-14-30-28.6-61.4-40.7-90.5c0,0-0.3-1.1-1.6-1.1l-26.3,0.8
	c-0.9,0-1.2,0.5-1.5,1.2c0,0-15,32.4-25.6,54.9C60,495.7,53.8,507.5,46.4,519.3 M425.3,441.4c12.9,0,19.5,3.3,21.1,10.6
	c3.5,16.4-20.8,15.7-31.3,16.1l0.4-26.4C419.8,441.5,422.4,441.4,425.3,441.4 M413.8,519.8c0.9,0,1.5-0.6,1.5-1.3
	c-0.3-12.3-0.2-37-0.2-37h3c0,0,34.8,43,67.6,43.7c0.7,0,2.4-0.1,1.7-1.5c-15.7-13.7-23-22.6-41.8-43.3
	c19.4-2.3,32.1-15.4,28.7-31.4c-3.6-16.6-20.6-21.6-38.4-21.6c-16.5,0-31.2,0.7-47.7,0.7c-0.8,0-1,0.5-1,1.2
	c0.4,22.6,1,45.3,0.3,67.8c-0.3,7.5-0.2,14.9-1.3,22.2c-0.1,0.6,0.3,1.5,1.4,1.5L413.8,519.8 M-123.2,479.7
	c17.8-0.3,39.2-4.4,42.4-10c0.5-0.8,0.7-3.3,0.7-3.3c0-0.5,0-1.2-1.3-1.2c-13.9,0.2-28.5,0.2-42.3-0.3c-0.1-7.4,0.1-21.9,0.1-21.9
	h9.9c13,0,25.9,0.1,39,0.3c1.1,0,1.7-0.4,1.7-1l0-13.7c0-0.5-0.2-1.5-1.4-1.5c-25.2,0.9-50.5,0.4-75.9,0.5c-1.1,0-0.9,1-0.9,1.2
	c0.4,22.6,1,45.3,0.3,67.8c-0.3,7.4-0.2,14.9-1.3,22.2c0,1.3,1.4,1.5,1.4,1.5c1.3,0,2.5,0,3.8-0.1c36.4-0.6,28-0.6,46.9-0.6h12.9
	c3.9,0,6.5,0,12.9,0.1c0.7,0,1.6-0.2,1.7-0.9l0.1-13.4c0-0.8-0.4-1.6-1.5-1.5c-18.5,0.6-10.5,0.4-49.1,0.4
	c-0.2-8.2-0.2-16.8-0.3-24.8H-123.2z M210.9,480.8c17.9-0.3,38.5-4.4,41.7-10c0.5-0.9,0.7-3.3,0.7-3.3c0.1-0.5,0-1.2-1.3-1.2
	c-13.8,0.1-28.2,0.1-41.9-0.3l0-23h8.4c13.6,0,25.3,0.1,38.9,0.3c1,0,1.8-0.4,1.7-1l0.2-13.7c0-0.9-0.3-1.5-1.3-1.5
	c-26,0.8-49.3,0.4-75.4,0.5c-0.6,0-0.9,0.4-0.9,1.2c0.4,22.6,0.9,45.3,0.3,67.8c-0.3,7.4-0.2,14.9-1.2,22.2
	c-0.1,0.9,0.5,1.5,1.4,1.5l26.6-1.1c0.9,0,1.5-0.4,1.5-1.2l0-16c0,1.1,0,2.2,0.1,3.3l-0.1-9.8l0-15L210.9,480.8z"/>
</svg>
