<?xml version="1.0" encoding="utf-8"?>
<!-- Generator: Adobe Illustrator 13.0.0, SVG Export Plug-In . SVG Version: 6.00 Build 14948)  -->
<!DOCTYPE svg PUBLIC "-//W3C//DTD SVG 1.1//EN" "http://www.w3.org/Graphics/SVG/1.1/DTD/svg11.dtd">
<svg version="1.1" id="Layer_1" xmlns="http://www.w3.org/2000/svg" xmlns:xlink="http://www.w3.org/1999/xlink" x="0px" y="0px"
	 width="300px" height="65px" viewBox="0 0 300 65" enable-background="new 0 0 300 65" xml:space="preserve">
<path fill-rule="evenodd" clip-rule="evenodd" fill="#EC1C1F" d="M85.557,64.112H68.072V18.571c0-3.491,2.027-7.48,4.52-10.313
	c5.901-6.709,14.629-8.305,23.385-6.602c5.453,1.046,10.833,4.649,13.638,10.315c2.651,5.333,1.61,12.786-1.95,17.268
	c4.47,2.312,8.055,6.519,8.6,11.166c0.988,8.389-1.765,15.924-8.183,20.625c-5.274,3.88-12.105,3.053-19.096,3.081V49.538
	c2.182,0.163,4.286-0.222,5.844-1.294c1.563-1.099,2.913-4.73,1.949-7.398c-1.325-3.684-4.857-3.739-7.793-3.684v-9.13
	c2.418,0.055,4.47-0.713,5.432-2.917c0.648-1.429,0.596-3.792,0-5.334c-0.677-1.813-1.949-2.887-3.899-2.914
	c-3.584-0.055-4.962,2.034-4.962,4.152V64.112"/>
<path fill-rule="evenodd" clip-rule="evenodd" fill="#EC1C1F" d="M237.414,3.28v18.563c-5.273-2.392-13.744-4.372-18.682,0.44
	c-4.234,4.126-6.314,9.681-4.729,15.649c1.248,4.618,5.951,9.238,10.576,9.871c4.311,0.578,8.832-0.687,12.834-2.062v18.233
	c-10.498,4.207-23.279,1.759-31.514-5.857c-8.549-7.864-12.158-18.701-10.158-30.5c1.74-10.312,9.975-21.394,19.896-24.777
	C221.957,0.722,231.387,0.008,237.414,3.28"/>
<path fill-rule="evenodd" clip-rule="evenodd" fill="#EC1C1F" d="M279.139,30.946c3.014,1.211,8.965,6.382,8.965,9.819
	l-0.029,23.348h-17.092v-17.82c0-10.477-9.381-8.36-9.381-8.36v26.181h-17.535V3.337h17.535v24.282
	c1.273-0.026,1.719-0.741,1.869-1.265l7.068-23.017h18.344l-6.99,24.64C281.893,27.977,281.139,30.671,279.139,30.946"/>
<rect x="172.564" y="3.337" fill="#EC1C1F" width="17.33" height="60.775"/>
<path fill-rule="evenodd" clip-rule="evenodd" fill="#EC1C1F" d="M139.908,28.307v35.806H121.67V24.979
	c0-15.428,8.209-23.925,22.341-23.925c10.029,0,20.967,7.343,20.967,18.948c0,4.702-2.076,9.844-5.584,12.843
	c4.752,1.869,6.445,6.461,6.445,12.676v18.592h-18.215c0-6.958,0-13.915,0-20.846c0-4.429-0.857-6.106-5.195-6.106v-9.157h0.933
	c2.418,0.056,4.441-0.713,5.432-2.888c0.649-1.429,0.572-3.795,0-5.334c-0.677-1.815-1.95-2.887-3.898-2.914
	c-3.585-0.056-4.988,2.034-4.988,4.152V28.307"/>
<path fill-rule="evenodd" clip-rule="evenodd" fill="#EC1C1F" d="M294.832,60.316l0.703,1.374h1.141l-1.141-2.062
	c0.57-0.057,1.063-0.357,1.063-1.238c0-1.044-0.648-1.404-1.766-1.43v0.825c0.34,0,0.756,0.055,0.756,0.495
	c0,0.523-0.262,0.632-0.678,0.632h-0.078V60.316 M294.832,63.727v-1.019c1.559-0.027,2.883-1.373,2.883-3.38
	c0-1.981-1.324-3.302-2.883-3.357v-1.017c2.154,0.026,4.078,1.649,4.078,4.374C298.91,62.077,296.986,63.7,294.832,63.727z
	 M294.053,59.713h0.441l0.338,0.604v-1.403h-0.779v-1.127h0.678c0.025,0,0.049,0,0.102,0v-0.825h-1.713v4.729h0.934V59.713z
	 M294.832,54.954v1.017c-0.025,0-0.053,0-0.076,0c-1.637,0-2.99,1.351-2.99,3.357c0,2.034,1.354,3.38,2.99,3.38
	c0.023,0,0.051,0,0.076,0v1.019h-0.076c-2.211,0-4.16-1.62-4.16-4.398c0-2.752,1.949-4.374,4.16-4.374H294.832z"/>
<path fill-rule="evenodd" clip-rule="evenodd" fill="#EC1C1F" d="M0.911,9.359h6.34v29.619h4.857V9.359h6.313V5.234H0.911V9.359z
	 M29.542,16.316c-3.768,0-5.587,1.68-5.587,1.68V5.234h-4.079v33.743h4.079c0,0,0-10.946,0-14.548c0-5.142,8.238-5.609,8.238-0.495
	c0,4.235,0,15.043,0,15.043h4.156c0,0,0-9.57,0-15.071C36.35,19.974,32.711,16.316,29.542,16.316z M58.042,29.38
	c0.053-0.496,0.078-1.019,0.078-1.513c0-6.379-4.364-11.523-9.743-11.523c-5.375,0-9.743,5.144-9.743,11.523
	c0,6.353,4.368,11.523,9.743,11.523c1.692,0,3.536-0.385,5.171-1.212c0.754-0.386,1.432-0.824,2.051-1.373
	c0.755-0.688,1.949-2.421,1.949-2.421l-3.507-1.759c-0.494,0.904-1.142,1.512-2.027,1.979c-1.142,0.578-2.598,0.797-3.638,0.797
	c-2.753,0-5.038-2.584-5.559-6.021H58.042z M48.377,20.333c2.573,0,4.755,2.281,5.432,5.417H42.924
	C43.622,22.614,45.779,20.333,48.377,20.333z"/>
</svg>
