<?xml version="1.0" encoding="utf-8"?>
<!-- Generator: Adobe Illustrator 24.1.2, SVG Export Plug-In . SVG Version: 6.00 Build 0)  -->
<svg version="1.1" id="Layer_1" xmlns="http://www.w3.org/2000/svg" xmlns:xlink="http://www.w3.org/1999/xlink" x="0px" y="0px"
	 viewBox="0 0 697.74 348.87" style="enable-background:new 0 0 697.74 348.87;" xml:space="preserve">
<style type="text/css">
	.st0{fill-rule:evenodd;clip-rule:evenodd;}
	.st1{fill-rule:evenodd;clip-rule:evenodd;fill:#00CF41;}
	.st2{fill-rule:evenodd;clip-rule:evenodd;fill:#FF6D00;}
</style>
<rect x="-773.08" y="-1263.53" class="st0" width="697.74" height="348.87"/>
<rect x="-773.08" y="-1263.53" class="st0" width="697.74" height="348.87"/>
<g>
	<path class="st1" d="M188.26,177.59c-11.61-29.07-22.51-43.14-29.33-53.59c1.64-4.78,4.07-13.3,5.9-22.25
		c1.47-7.21,2.3-14.63,4.79-20.8c11.27-27.89,44.24-41.61,72.12-30.34c21.07,8.51,34.6,28.67,34.6,50.1
		c0,6.97-0.26,16.18-1.82,29.38c-1.4,11.91-4.41,23.94-7.97,33.89c-7.18,20.05-23.35,45.7-40.84,45.87
		C208.23,210.01,195.26,192.12,188.26,177.59z"/>
	<path class="st2" d="M216.29,215.42L216.29,215.42c0,0.41-0.32,0.73-0.72,0.73l0,0c-25.72,0-64.25,0-115.61,0
		c-12.49,0-25.93-10.87-35.87-25.42c-4.87-7.13-8.67-14.47-11.52-23.15c-9.37-28.6,2.03-56.15,28.31-66.74
		c19.04-7.67,39.95-4.16,54.03,7.72c14.56,13.17,30.21,29.51,43.58,59.53c7.48,17.1,16.17,40.25,37.13,46.48c0,0,0.01,0,0.02,0v0
		C216.02,214.67,216.29,215.02,216.29,215.42z"/>
	<path class="st0" d="M596.51,200.47c18.83,0,34.1-15.33,34.1-34.25c0-18.91-15.27-34.25-34.1-34.25s-34.1,15.33-34.1,34.25
		C562.42,185.13,577.68,200.47,596.51,200.47z M648.4,166.57l0.01-0.01v49.6h-18.16v-11.31c-9.07,7.62-20.86,12.22-33.74,12.22
		c-28.66,0-51.89-22.77-51.89-50.85c0-28.08,23.23-50.85,51.89-50.85c28.66,0,51.89,22.77,51.89,50.85
		C648.4,166.34,648.4,166.45,648.4,166.57z M395.38,200.47c18.83,0,34.1-15.33,34.1-34.25c0-18.91-15.27-34.25-34.1-34.25
		c-18.83,0-34.1,15.33-34.1,34.25C361.29,185.13,376.55,200.47,395.38,200.47z M395.38,217.07c-28.66,0-51.89-22.77-51.89-50.85
		c0-28.08,23.23-50.85,51.89-50.85c28.66,0,51.89,22.77,51.89,50.85C447.27,194.3,424.04,217.07,395.38,217.07z M506.76,116.28
		h18.16v99.88h-18.16V116.28z M515.84,100.39c-6.27,0-11.35-5.08-11.35-11.35c0-6.27,5.08-11.35,11.35-11.35
		c6.27,0,11.35,5.08,11.35,11.35C527.19,95.31,522.11,100.39,515.84,100.39z M293.05,181.45l40.89-101.49h19.68l-54.9,136.2h-0.16
		h-11.21l-54.81-136.2h19.68L293.05,181.45z M466.81,79.96h18.16v136.2h-18.16V79.96z"/>
	<path class="st2" d="M340.73,272.31h-11.78c-2.76-5.83-8.67-9.86-15.53-9.86c-9.49,0-17.18,7.73-17.18,17.26
		c0,9.53,7.69,17.26,17.18,17.26c6.78,0,12.64-3.94,15.44-9.67h11.81c-3.37,11.64-14.29,20.17-27.25,20.17
		c-15.64,0-28.32-12.43-28.32-27.76s12.68-27.76,28.32-27.76C326.45,251.95,337.42,260.57,340.73,272.31z M355.01,232.45h10.9v74.48
		h-10.9V232.45z M472.54,296.97c9.49,0,17.18-7.73,17.18-17.26c0-9.53-7.69-17.26-17.18-17.26c-9.49,0-17.18,7.73-17.18,17.26
		C455.36,289.24,463.05,296.97,472.54,296.97z M444.22,279.71v-47.26h10.9v25.37c4.8-3.68,10.85-5.87,17.42-5.87
		c15.64,0,28.32,12.43,28.32,27.76s-12.68,27.76-28.32,27.76C456.9,307.46,444.22,295.04,444.22,279.71z M405.02,307.46
		L405.02,307.46c-14.72,0-24.38-9.52-24.38-23.94v-30.97h10.9v29.42c0,9.31,5.21,14.96,13.48,14.96c8.35,0,13.57-5.75,13.57-14.96
		v-29.42h10.9v30.97C429.49,297.95,419.81,307.46,405.02,307.46z"/>
</g>
</svg>
